<svg width="282" height="98" viewBox="0 0 282 98" fill="none" xmlns="http://www.w3.org/2000/svg">
<path fill-rule="evenodd" clip-rule="evenodd" d="M253.372 2.35286H223.922V49.8734H253.372C270.952 49.8734 282 40.7828 282 26.1666C282 11.4613 270.952 2.35286 253.372 2.35286ZM252.265 35.5424H242.145V16.6839H252.265C259.815 16.6839 263.581 20.1775 263.581 26.1488C263.599 32.0488 259.815 35.5424 252.265 35.5424ZM140.536 52.2619L152.691 41.0502C161.9 32.6013 163.649 26.8974 163.649 20.641C163.649 8.69844 153.44 1.06949 138.608 1.06949C125.901 1.06949 116.798 6.39906 111.926 14.4915L120.671 19.3576C123.206 20.7657 126.258 20.3558 128.542 18.5733C130.916 16.7195 133.825 15.7748 136.966 15.7748C142.481 15.7748 145.248 18.2525 145.248 22.3878C145.248 25.0615 144.516 28.0026 139.358 32.7796L118.119 52.6184C116.28 54.3296 115.245 56.7181 115.245 59.2314V59.2848C115.245 63.3845 118.565 66.6999 122.67 66.6999H183.068V52.2619H140.536Z" fill="white"/>
<path fill-rule="evenodd" clip-rule="evenodd" d="M223.922 66.2899L210.304 46.4689C218.318 42.6009 222.905 35.6315 222.905 26.1488C222.905 11.4434 211.857 2.33502 194.277 2.33502H164.827V35.5067H183.05V16.6839H193.17C200.72 16.6839 204.486 20.1775 204.486 26.1488C204.486 32.0309 200.72 35.5245 193.17 35.5245H183.05V49.5882H192.991L204.682 66.6821H204.753L221.566 91.5475C222.602 93.0835 224 94.342 225.637 95.2122C227.274 96.0825 229.1 96.5378 230.954 96.5384H236.951C239.807 96.5384 242.127 94.2212 242.127 91.3692L242.145 66.3077H223.922V66.2899Z" fill="white"/>
<path d="M119.779 74.7566H124.026C125.008 74.7566 125.883 74.9349 126.65 75.3092C127.418 75.6835 128.007 76.2004 128.417 76.8778C128.828 77.5551 129.042 78.3394 129.042 79.2485C129.042 80.1575 128.828 80.9418 128.417 81.6191C128.007 82.2965 127.4 82.8134 126.65 83.1877C125.883 83.562 125.008 83.7403 124.026 83.7403H119.779V74.7566ZM123.919 81.7083C124.687 81.7083 125.312 81.4944 125.776 81.0488C126.24 80.621 126.472 80.0149 126.472 79.2485C126.472 78.482 126.24 77.876 125.776 77.4482C125.312 77.0204 124.687 76.7887 123.919 76.7887H122.313V81.7083H123.919ZM135.86 77.4482C136.467 77.9651 136.77 78.785 136.77 79.8723V83.7225H134.503V82.8312C134.146 83.5086 133.468 83.8472 132.451 83.8472C131.915 83.8472 131.451 83.7581 131.059 83.562C130.666 83.366 130.363 83.1164 130.166 82.7956C129.97 82.4747 129.863 82.1182 129.863 81.7083C129.863 81.0487 130.113 80.5318 130.612 80.1753C131.112 79.8188 131.897 79.6228 132.951 79.6228H134.343C134.307 78.892 133.807 78.5176 132.861 78.5176C132.522 78.5176 132.183 78.5711 131.844 78.6781C131.505 78.785 131.219 78.9276 130.969 79.1237L130.148 77.466C130.541 77.2164 131.005 77.0025 131.558 76.8778C132.112 76.7352 132.665 76.6639 133.218 76.6639C134.378 76.6639 135.253 76.9313 135.86 77.4482ZM133.879 82.1004C134.098 81.9576 134.262 81.7436 134.343 81.4944V80.8883H133.29C132.576 80.8883 132.219 81.12 132.219 81.6013C132.219 81.8152 132.308 81.9935 132.469 82.1182C132.629 82.243 132.861 82.3143 133.129 82.3143C133.415 82.3143 133.664 82.243 133.879 82.1004ZM143.106 83.4551C142.892 83.5798 142.642 83.6868 142.356 83.7581C142.053 83.8294 141.75 83.865 141.411 83.865C140.5 83.865 139.804 83.6511 139.322 83.2055C138.84 82.7599 138.591 82.1004 138.591 81.227V78.892H137.573V77.0739H138.591V75.2736H141.036V77.0739H142.624V78.892H141.036V81.1913C141.036 81.4409 141.107 81.637 141.232 81.7796C141.357 81.9222 141.535 81.9935 141.767 81.9935C142.053 81.9935 142.303 81.9222 142.517 81.7796L143.106 83.4551ZM149.656 77.4482C150.263 77.9651 150.567 78.785 150.567 79.8723V83.7225H148.3V82.8312C147.943 83.5086 147.265 83.8472 146.247 83.8472C145.712 83.8472 145.248 83.7581 144.855 83.562C144.463 83.366 144.159 83.1164 143.963 82.7956C143.766 82.4747 143.659 82.1182 143.659 81.7083C143.659 81.0487 143.909 80.5318 144.409 80.1753C144.909 79.8188 145.694 79.6228 146.747 79.6228H148.139C148.104 78.892 147.604 78.5176 146.658 78.5176C146.319 78.5176 145.98 78.5711 145.641 78.6781C145.301 78.785 145.016 78.9276 144.766 79.1237L143.945 77.466C144.338 77.2164 144.802 77.0025 145.355 76.8778C145.908 76.7352 146.462 76.6639 147.015 76.6639C148.175 76.6639 149.049 76.9313 149.656 77.4482ZM147.675 82.1004C147.895 81.9576 148.059 81.7436 148.139 81.4944V80.8883H147.086C146.372 80.8883 146.015 81.12 146.015 81.6013C146.015 81.8152 146.105 81.9935 146.265 82.1182C146.426 82.243 146.658 82.3143 146.926 82.3143C147.211 82.3143 147.461 82.243 147.675 82.1004ZM151.941 79.1415H155.689V81.0131H151.941V79.1415ZM164.613 74.2219V83.7225H162.293V83.0273C161.847 83.562 161.151 83.8294 160.258 83.8294C159.633 83.8294 159.044 83.6868 158.527 83.3838C158.009 83.0808 157.599 82.6708 157.295 82.1182C156.992 81.5657 156.831 80.9418 156.831 80.2288C156.831 79.5158 156.992 78.8741 157.295 78.3394C157.599 77.8047 158.009 77.3769 158.527 77.0917C159.044 76.8065 159.633 76.6639 160.258 76.6639C161.079 76.6639 161.722 76.8956 162.186 77.3769V74.2041H164.613V74.2219ZM161.793 81.4587C162.061 81.1557 162.204 80.7635 162.204 80.2288C162.204 79.7119 162.061 79.3198 161.793 79.0167C161.658 78.8751 161.494 78.7637 161.312 78.69C161.131 78.6162 160.936 78.5818 160.74 78.5889C160.312 78.5889 159.955 78.7315 159.687 79.0167C159.419 79.3019 159.276 79.7119 159.276 80.2288C159.276 80.7457 159.419 81.1557 159.687 81.4587C159.955 81.7617 160.312 81.9043 160.74 81.9043C161.168 81.9043 161.525 81.7617 161.793 81.4587ZM169.468 76.8956C169.86 76.7352 170.324 76.6639 170.842 76.6639V78.8563C170.628 78.8385 170.432 78.8207 170.289 78.8207C169.771 78.8207 169.361 78.9633 169.057 79.2485C168.754 79.5337 168.611 79.9614 168.611 80.5497V83.7403H166.166V76.7887H168.486V77.6264C168.736 77.3056 169.057 77.056 169.468 76.8956ZM171.966 75.6479C171.699 75.3983 171.556 75.0953 171.556 74.721C171.556 74.3467 171.699 74.0437 171.966 73.7941C172.234 73.5446 172.591 73.4198 173.037 73.4198C173.484 73.4198 173.841 73.5446 174.108 73.7763C174.376 74.008 174.519 74.311 174.519 74.6853C174.519 75.0775 174.376 75.3805 174.108 75.6479C173.841 75.8974 173.484 76.0222 173.037 76.0222C172.609 76.0222 172.252 75.8974 171.966 75.6479ZM171.824 76.7887H174.269V83.7403H171.824V76.7887ZM183.175 76.7887L180.302 83.7403H177.785L174.929 76.7887H177.428L179.088 81.0309L180.837 76.7887H183.175ZM190.689 80.8705H185.62C185.727 81.227 185.924 81.5122 186.209 81.6904C186.513 81.8865 186.87 81.9756 187.316 81.9756C187.655 81.9756 187.941 81.9222 188.19 81.833C188.44 81.7439 188.672 81.5835 188.922 81.3696L190.207 82.7064C189.529 83.4551 188.547 83.8294 187.244 83.8294C186.423 83.8294 185.71 83.669 185.103 83.366C184.478 83.0629 184.014 82.6351 183.675 82.0826C183.335 81.5245 183.162 80.8816 183.175 80.2288C183.175 79.5515 183.336 78.9276 183.675 78.3929C183.996 77.8581 184.46 77.4303 185.049 77.1095C185.638 76.8065 186.281 76.6461 187.012 76.6461C187.708 76.6461 188.333 76.7887 188.904 77.0739C189.475 77.359 189.922 77.769 190.243 78.3216C190.564 78.8563 190.743 79.5158 190.743 80.2466C190.725 80.2823 190.707 80.4784 190.689 80.8705ZM186.066 78.7137C185.808 78.9394 185.638 79.2486 185.585 79.5871H188.44C188.387 79.2486 188.217 78.9394 187.958 78.7137C187.708 78.4998 187.387 78.3929 187.012 78.3929C186.638 78.3929 186.316 78.4998 186.066 78.7137ZM198.471 77.4303C198.988 77.9473 199.256 78.7137 199.256 79.7476V83.7225H196.811V80.1397C196.811 79.195 196.436 78.7137 195.669 78.7137C195.258 78.7137 194.919 78.8563 194.669 79.1237C194.419 79.3911 194.294 79.801 194.294 80.3536V83.7046H191.849V76.753H194.169V77.5016C194.437 77.2164 194.776 77.0025 195.151 76.8599C195.526 76.7174 195.936 76.6282 196.383 76.6282C197.239 76.6639 197.935 76.9313 198.471 77.4303ZM121.724 93.6508C120.974 93.2586 120.385 92.7061 119.957 91.9931C119.529 91.2801 119.315 90.478 119.315 89.5868C119.315 88.6955 119.529 87.8934 119.957 87.1804C120.385 86.4674 120.974 85.9149 121.724 85.5227C122.474 85.1306 123.313 84.9345 124.258 84.9345C125.08 84.9345 125.811 85.0771 126.472 85.3623C127.132 85.6475 127.685 86.0753 128.114 86.61L126.49 88.0717C125.901 87.3765 125.204 87.02 124.366 87.02C123.884 87.02 123.437 87.127 123.063 87.3409C122.688 87.5547 122.384 87.8578 122.17 88.2499C121.956 88.6421 121.849 89.0877 121.849 89.5868C121.849 90.0858 121.956 90.5315 122.17 90.9236C122.384 91.3158 122.67 91.6188 123.063 91.8327C123.437 92.0466 123.884 92.1535 124.366 92.1535C125.187 92.1535 125.901 91.797 126.49 91.1019L128.114 92.5635C127.685 93.116 127.132 93.526 126.472 93.8112C125.811 94.0964 125.08 94.239 124.258 94.239C123.313 94.2568 122.456 94.0608 121.724 93.6508ZM130.38 93.7221C129.797 93.4379 129.308 92.9924 128.97 92.4387C128.631 91.8807 128.458 91.2377 128.471 90.5849C128.471 89.9076 128.631 89.2837 128.97 88.7312C129.31 88.1786 129.774 87.7508 130.363 87.4478C130.952 87.1448 131.63 86.9844 132.379 86.9844C133.129 86.9844 133.807 87.1448 134.414 87.4478C135.021 87.7508 135.485 88.1786 135.806 88.7134C136.145 89.2481 136.306 89.872 136.306 90.5671C136.306 91.2623 136.145 91.8861 135.806 92.4209C135.467 92.9734 135.003 93.4012 134.414 93.7043C133.807 94.0073 133.147 94.1677 132.379 94.1677C131.648 94.1855 130.987 94.0429 130.38 93.7221ZM133.45 91.8148C133.718 91.5118 133.861 91.1197 133.861 90.5849C133.861 90.068 133.718 89.6759 133.45 89.3729C133.315 89.2312 133.151 89.1198 132.97 89.0461C132.788 88.9724 132.593 88.9379 132.397 88.9451C131.969 88.9451 131.612 89.0877 131.344 89.3729C131.076 89.6581 130.934 90.068 130.934 90.5849C130.934 91.1019 131.076 91.5118 131.344 91.8148C131.612 92.1179 131.969 92.2605 132.397 92.2605C132.826 92.2605 133.183 92.1 133.45 91.8148ZM148.568 87.7865C149.085 88.3034 149.335 89.0698 149.335 90.1037V94.0786H146.89V90.4958C146.89 90.0146 146.801 89.6581 146.622 89.4263C146.444 89.1946 146.176 89.0877 145.837 89.0877C145.462 89.0877 145.176 89.2124 144.944 89.4798C144.73 89.7294 144.605 90.1215 144.605 90.6384V94.0786H142.16V90.4958C142.16 89.5511 141.803 89.0698 141.107 89.0698C140.732 89.0698 140.429 89.1946 140.215 89.462C140.001 89.7115 139.876 90.1037 139.876 90.6206V94.0608H137.43V87.1091H139.751V87.8399C140.001 87.5547 140.322 87.3409 140.661 87.1982C141.018 87.0557 141.411 86.9844 141.821 86.9844C142.303 86.9844 142.749 87.0735 143.124 87.2517C143.517 87.43 143.82 87.6973 144.07 88.0717C144.338 87.7152 144.695 87.4478 145.105 87.2696C145.516 87.0735 145.98 86.9844 146.479 86.9844C147.372 87.02 148.05 87.2696 148.568 87.7865ZM156.974 87.4478C157.492 87.7508 157.902 88.1608 158.206 88.6955C158.509 89.2303 158.67 89.872 158.67 90.5849C158.67 91.2979 158.509 91.9396 158.206 92.4744C157.902 93.0091 157.492 93.4369 156.974 93.7221C156.456 94.0251 155.885 94.1677 155.243 94.1677C154.422 94.1677 153.779 93.9182 153.297 93.4369V96.5384H150.852V87.1091H153.172V87.8043C153.619 87.2696 154.315 87.0022 155.225 87.0022C155.867 87.02 156.456 87.1626 156.974 87.4478ZM155.778 91.8148C156.046 91.5118 156.189 91.1197 156.189 90.6028C156.189 90.0859 156.046 89.6937 155.778 89.3907C155.511 89.0877 155.154 88.9451 154.725 88.9451C154.297 88.9451 153.94 89.0877 153.672 89.3907C153.404 89.6937 153.262 90.0859 153.262 90.6028C153.262 91.1197 153.404 91.5118 153.672 91.8148C153.94 92.1179 154.297 92.2605 154.725 92.2605C155.154 92.2605 155.511 92.1 155.778 91.8148ZM165.238 87.8043C165.845 88.3212 166.148 89.1411 166.148 90.2284V94.0786H163.881V93.1873C163.524 93.8647 162.846 94.2033 161.829 94.2033C161.293 94.2033 160.829 94.1142 160.437 93.9182C160.044 93.7221 159.741 93.4725 159.544 93.1517C159.348 92.8308 159.241 92.4744 159.241 92.0644C159.241 91.4049 159.491 90.888 159.99 90.5315C160.49 90.175 161.275 89.9789 162.328 89.9789H163.721C163.685 89.2481 163.185 88.8738 162.239 88.8738C161.9 88.8738 161.561 88.9273 161.222 89.0342C160.883 89.1411 160.597 89.2837 160.347 89.4798L159.526 87.8221C159.919 87.5726 160.383 87.3587 160.936 87.2339C161.49 87.0913 162.043 87.02 162.596 87.02C163.756 87.02 164.631 87.2696 165.238 87.8043ZM163.239 92.4387C163.458 92.2959 163.622 92.0819 163.703 91.8327V91.2266H162.65C161.936 91.2266 161.579 91.4584 161.579 91.9396C161.579 92.1535 161.668 92.3318 161.829 92.4565C161.989 92.5813 162.221 92.6526 162.489 92.6526C162.793 92.6526 163.025 92.5813 163.239 92.4387ZM174.305 87.7865C174.822 88.3034 175.09 89.0698 175.09 90.1037V94.0786H172.645V90.4958C172.645 89.5511 172.27 89.0698 171.502 89.0698C171.092 89.0698 170.753 89.2124 170.503 89.4798C170.253 89.7472 170.128 90.1572 170.128 90.7097V94.0608H167.683V87.1091H170.003V87.8578C170.271 87.5726 170.61 87.3587 170.985 87.2161C171.36 87.0735 171.77 86.9844 172.216 86.9844C173.073 87.02 173.769 87.2696 174.305 87.7865ZM183.818 87.127L180.819 94.3459C180.462 95.2015 180.034 95.8076 179.534 96.1462C179.034 96.4849 178.41 96.6632 177.678 96.6632C177.303 96.6632 176.946 96.6097 176.571 96.4849C176.238 96.3967 175.928 96.2387 175.661 96.0215L176.5 94.3103C176.643 94.4351 176.803 94.542 177 94.6133C177.196 94.6846 177.392 94.7203 177.589 94.7203C177.821 94.7203 178.017 94.6668 178.16 94.5777C178.303 94.4885 178.427 94.3281 178.535 94.1321L175.554 87.0913H178.053L179.766 91.3336L181.48 87.0913H183.818V87.127ZM93.3813 33.7243L93.8096 35.0789C93.3277 33.4747 91.5786 32.227 88.4195 31.4427C85.9029 30.8188 82.6903 30.5693 78.9779 30.6228C78.3175 30.5515 78.0854 29.6424 78.4246 29.4107C78.4781 29.375 78.5495 29.375 78.603 29.3572C82.3154 29.3037 85.5281 29.5533 88.0447 30.1772C91.1146 30.9436 92.8637 32.1557 93.3813 33.7243ZM94.7199 38.6439L94.5592 37.9309L94.7199 38.6795C94.7377 38.6795 94.7199 38.6617 94.7199 38.6439ZM93.2742 60.7821C93.0957 60.8534 92.8458 61.7803 92.9351 62.012C93.2206 62.4042 93.3991 62.8319 93.4527 63.2954V63.3132C93.4705 63.3132 93.5062 63.2954 93.6133 62.9567C93.649 62.8319 93.8275 62.315 93.8275 62.1011C93.7739 61.6377 93.5954 61.1921 93.292 60.7999L93.2742 60.7821ZM91.8106 29.5889L91.2395 28.3234V28.3056C91.3109 28.466 91.65 29.2324 91.7749 29.4998C91.7749 29.5176 91.7928 29.5533 91.8106 29.5889ZM92.5424 31.3892L92.0248 30.088C91.9713 29.9633 91.9177 29.8385 91.8463 29.7137C91.8463 29.7137 91.8285 29.7137 91.8285 29.6959C91.8642 29.8741 92.2033 30.6762 92.3282 30.9258C92.4175 31.0862 92.4889 31.2288 92.5424 31.3892ZM93.2028 33.1895L92.7209 31.8705C92.6852 31.7814 92.6495 31.7101 92.6138 31.6388C92.6138 31.6388 92.6138 31.621 92.596 31.621C92.6495 31.7992 92.9351 32.6191 93.0422 32.8687C93.1135 32.9756 93.1671 33.0826 93.2028 33.1895ZM89.5618 25.5427C89.5618 25.5606 89.5618 25.5606 89.5618 25.5427C89.5618 25.721 89.9544 26.4874 90.1508 26.7013C90.5434 27.0578 90.829 27.4322 91.0253 27.8421L90.8647 27.5035L90.4185 26.6122C90.2222 26.2379 89.9544 25.8814 89.5975 25.5606C89.5796 25.5606 89.5618 25.5606 89.5618 25.5427ZM88.5087 23.7959L88.4909 23.7781H88.473C88.473 23.9385 88.9014 24.6872 89.1156 24.9011C89.5796 25.2754 89.9366 25.6853 90.1686 26.131L89.5082 24.9367C89.2762 24.5267 88.9371 24.1524 88.5087 23.7959ZM89.2584 24.4911L88.5623 23.3147C88.4909 23.1899 88.3838 23.0651 88.2946 22.9403L88.2767 22.9225C88.3303 23.0651 88.7765 23.7959 88.9371 24.0276C89.0442 24.1881 89.1513 24.3307 89.2584 24.4911ZM77.2109 26.0418C76.8896 26.2557 77.1752 27.1291 77.8356 27.1826C80.8876 27.1291 83.6184 27.3074 85.8851 27.7174C86.1349 27.7174 86.0814 27.4322 86.0457 27.2896C86.01 27.1648 85.7958 26.63 85.421 26.5053C83.1543 26.0953 80.4414 25.9349 77.3894 25.9705C77.3358 25.9884 77.2644 26.0062 77.2109 26.0418ZM76.6933 15.7392C75.8723 15.6679 75.0156 15.6322 74.1232 15.6144C74.0696 15.6144 73.9804 15.6501 73.9447 15.6857C73.8019 15.864 74.2124 16.5056 74.7835 16.5769C77.4072 16.6304 79.6918 16.88 81.5837 17.3434C83.8861 17.9138 85.3853 18.7337 86.1706 19.7854L85.3496 18.7159C84.5643 17.7177 83.0829 16.9156 80.8698 16.3809C79.6204 16.0778 78.2282 15.864 76.6933 15.7392ZM81.8335 17.7355C80.4414 17.3969 78.8172 17.1652 76.9967 17.0404C76.961 17.0404 76.8896 17.0404 76.8718 17.076C76.6576 17.2365 77.0681 17.9494 77.6392 18.0386C79.4776 18.1633 81.1018 18.3951 82.5118 18.7337C84.4037 19.1972 85.778 19.8567 86.6704 20.6588C86.6347 20.5875 86.6168 20.5518 86.4919 20.3736C86.4919 20.3736 86.1349 19.8389 85.9208 19.6428C85.0819 18.8407 83.7254 18.199 81.8335 17.7355ZM82.7795 19.108C81.8692 18.8763 80.8519 18.7159 79.7453 18.5733C79.7096 18.5733 79.6561 18.5733 79.6204 18.5911C79.4241 18.7337 79.8346 19.4824 80.37 19.6071C81.4766 19.7319 82.4939 19.9102 83.422 20.1419C85.1711 20.5697 86.4741 21.1579 87.4022 21.853C87.3843 21.7996 87.3665 21.7461 87.2594 21.5678C87.2594 21.5678 86.9203 21.0153 86.7061 20.8192C85.8137 20.124 84.5108 19.5358 82.7795 19.108ZM84.3858 20.7657C84.1538 20.6944 83.9218 20.641 83.6719 20.5697C82.9044 20.3914 82.0834 20.231 81.2089 20.1062C81.1732 20.1062 81.1196 20.1062 81.0839 20.124C80.8876 20.2666 81.2803 21.0331 81.7979 21.1757C82.6903 21.3005 83.5113 21.4431 84.2787 21.6391C84.5286 21.6926 84.7606 21.7639 84.9927 21.8352C85.189 21.853 85.0997 21.6213 85.0284 21.4965C85.0462 21.4787 84.7606 20.9262 84.3858 20.7657ZM77.2287 18.3772C76.3542 18.3416 75.4261 18.3059 74.4623 18.3238C74.4087 18.3238 74.3552 18.3416 74.3017 18.3594C74.0339 18.5377 74.4087 19.2863 75.0334 19.3576C75.9972 19.3576 76.9253 19.3754 77.8177 19.4111C78.1033 19.3932 78.0497 19.1615 77.9784 19.0189C77.9962 19.0189 77.7463 18.4664 77.2287 18.3772ZM79.317 20.9262C79.6025 20.9083 79.5311 20.641 79.4776 20.534C79.424 20.4092 79.1563 19.9458 78.728 19.8745C76.9789 19.7676 75.0691 19.7497 73.0166 19.821C72.963 19.821 72.8916 19.8389 72.8559 19.8745C72.5525 20.0706 72.9095 20.837 73.5699 20.8905C75.6403 20.8014 77.5678 20.8192 79.317 20.9262ZM79.4062 22.4056C79.7096 22.3878 79.6382 22.1026 79.6025 21.9956C79.6025 21.9956 79.3705 21.4074 78.8529 21.3183C77.4965 21.247 76.0508 21.247 74.5337 21.2826C74.4801 21.2826 74.4087 21.3005 74.373 21.3361C74.0696 21.5322 74.4087 22.3343 75.0691 22.3878C76.6041 22.3165 78.0498 22.3343 79.4062 22.4056ZM76.5327 23.9207C77.55 23.9029 78.5138 23.9207 79.4419 23.9385C79.7453 23.9029 79.7096 23.6533 79.6561 23.4929C79.6561 23.4929 79.4419 22.8869 78.9243 22.7977C77.9962 22.7621 77.0324 22.7621 76.0151 22.7799C75.9615 22.7799 75.8901 22.7977 75.8544 22.8334C75.5689 23.0295 75.8901 23.8494 76.5327 23.9207ZM77.3894 11.0691C77.4251 11.1939 78.0498 11.7286 78.3175 11.8712C78.9779 12.1742 79.4954 12.4951 79.906 12.8694L78.9065 11.9782C78.5316 11.6573 78.0319 11.3543 77.4429 11.0869C77.4251 11.0869 77.4072 11.0691 77.3894 11.0691ZM77.4965 11.7643C77.4786 11.9069 78.0854 12.4594 78.4067 12.5842C79.6918 12.9942 80.6377 13.5289 81.2624 14.1528L80.2986 13.2259C79.6739 12.6555 78.7637 12.1564 77.5678 11.7643H77.4965ZM75.3904 12.2099C75.3547 12.2099 75.319 12.2099 75.2833 12.2277C75.1405 12.3347 75.6759 12.9585 76.1578 13.0655C76.9789 13.1724 77.7463 13.315 78.4603 13.4933C80.4057 13.9745 81.78 14.6519 82.5653 15.5075L81.6372 14.5449C80.8341 13.7428 79.5133 13.0833 77.6571 12.6377C76.961 12.4594 76.1936 12.3168 75.3904 12.2099ZM75.8901 13.315C75.1405 13.2259 74.3373 13.1546 73.4985 13.119C73.4449 13.119 73.3736 13.1368 73.3379 13.1903C73.2308 13.3328 73.677 13.9389 74.2124 14.0102C76.2292 14.1171 78.0141 14.3489 79.5133 14.7053C81.5837 15.2044 82.9937 15.9353 83.7968 16.8621L82.9044 15.864C82.1013 15.0084 80.727 14.3132 78.7458 13.8141C77.8891 13.6002 76.9253 13.4398 75.8901 13.315ZM78.5673 14.8123C77.8713 14.6875 77.1217 14.5806 76.3363 14.5093C76.3006 14.5093 76.2471 14.5093 76.2114 14.5271C76.0329 14.6519 76.497 15.3292 77.0324 15.4362C78.3353 15.5609 79.5133 15.757 80.5663 16.0065C82.7438 16.5413 84.2073 17.3256 84.9927 18.3059L84.1359 17.2721C83.3328 16.3452 81.9049 15.5966 79.8167 15.0797C79.4241 14.9905 78.9957 14.9014 78.5673 14.8123ZM74.1767 8.59149C74.73 8.82321 75.2119 9.07275 75.6046 9.35795L75.551 9.3223L74.498 8.57366C74.141 8.32412 73.7127 8.11022 73.2129 7.91415H73.1772C73.2129 8.00327 73.8911 8.46672 74.1767 8.59149ZM75.4261 9.30447C75.5153 9.3936 76.1757 9.89269 76.4077 10.0353C76.6576 10.1779 76.8896 10.3205 77.086 10.4809L76.0329 9.67879C75.8544 9.55402 75.6759 9.42925 75.4618 9.30447H75.4261ZM75.783 9.87486C75.8187 9.98181 76.4434 10.4987 76.7468 10.6235C77.4786 10.9265 78.0676 11.2652 78.5138 11.6395L77.4786 10.7839C76.9776 10.3995 76.4248 10.0875 75.8366 9.85704C75.8187 9.87486 75.8009 9.85704 75.783 9.87486ZM68.858 9.37577C69.09 9.35795 69.0186 9.21535 68.9294 9.09058C68.858 9.00146 68.501 8.68061 68.0905 8.64496C67.68 8.64496 67.2695 8.62714 66.859 8.62714C66.8233 8.62714 66.7697 8.62714 66.7341 8.66279C66.5377 8.78756 67.0553 9.3223 67.6086 9.37577H68.858ZM70.5535 10.4809C70.7856 10.4631 70.7142 10.3027 70.6249 10.1779C70.5535 10.0888 70.2144 9.75009 69.7861 9.69662C69.3756 9.67879 68.9651 9.67879 68.5546 9.66097C68.5189 9.66097 68.4653 9.66097 68.4296 9.69662C68.2333 9.82139 68.7509 10.3918 69.3042 10.4453C69.7147 10.4453 70.143 10.4631 70.5535 10.4809ZM68.2868 6.14951H68.2154C68.1619 6.27428 68.8401 6.68425 69.1971 6.77337C69.8396 6.8625 70.4286 6.96944 70.9819 7.09422H71.0533C71.0533 7.07639 71.0533 7.04074 70.857 6.89814C70.857 6.89814 70.3929 6.55948 70.036 6.47035C69.5005 6.34558 68.9115 6.23863 68.2868 6.14951ZM57.4352 5.3474C57.3281 5.50782 57.7922 5.86431 58.3097 5.86431L59.5948 5.75737C59.8447 5.72172 59.7733 5.59694 59.6841 5.49C59.45 5.28936 59.1536 5.17598 58.8452 5.16915C58.4347 5.2048 58.0063 5.22263 57.578 5.25828C57.5423 5.29393 57.453 5.31175 57.4352 5.3474ZM58.042 4.77701C58.042 4.77701 57.7029 4.47399 57.221 4.49182L55.9716 4.59876C55.9181 4.61659 55.8467 4.61659 55.811 4.67006C55.7218 4.81266 56.1501 5.16915 56.6856 5.15133L57.9528 5.04438C58.2027 4.99091 58.1313 4.86613 58.042 4.77701ZM55.0614 4.43834C56.3286 4.31357 57.5423 4.20662 58.6846 4.15315C58.8987 4.13532 58.8095 4.01055 58.7203 3.93925C58.4755 3.77572 58.1928 3.67753 57.8992 3.65406C56.7748 3.70753 55.5968 3.79665 54.3653 3.92143C54.3118 3.93925 54.2404 3.93925 54.2047 3.99272C54.0976 4.15315 54.5616 4.45617 55.0614 4.43834ZM65.6989 3.79665L64.396 3.27974C64.2889 3.24409 64.1639 3.19061 64.039 3.15497H64.0033C64.0925 3.20844 64.86 3.51146 65.1099 3.60058C65.3062 3.63623 65.5025 3.70753 65.6989 3.79665ZM65.1813 3.65406C65.2527 3.72535 65.9844 4.0462 66.27 4.13532C66.7341 4.27792 67.1446 4.42052 67.5015 4.58094L66.2165 3.99272C65.913 3.86795 65.5918 3.74318 65.217 3.65406H65.1813ZM65.5561 4.06402H65.5204C65.5204 4.06402 65.5204 4.08185 65.5025 4.08185C65.6275 4.20662 66.2343 4.49182 66.5556 4.58094C66.7519 4.61659 66.9482 4.67006 67.1446 4.70571C67.9656 4.90178 68.6616 5.15133 69.2149 5.43652L68.6973 5.16915L67.9834 4.81266C67.4658 4.56311 66.859 4.34922 66.1451 4.1888C65.9506 4.1387 65.7541 4.09707 65.5561 4.06402ZM70.857 6.30993C70.5536 6.14951 70.2501 5.97126 69.9467 5.81084L70.857 6.30993C70.857 6.32776 70.857 6.30993 70.857 6.30993ZM72.4633 7.27246L71.3032 6.5773C71.2139 6.52383 71.1247 6.47035 71.0176 6.41688C71.0176 6.41688 70.9997 6.41688 70.9997 6.39905C71.1068 6.47035 71.8029 6.89815 72.0528 7.02292C72.1956 7.11204 72.3384 7.18334 72.4633 7.27246ZM68.5367 5.45435C68.733 5.50782 68.9115 5.54347 69.09 5.59694H69.1435C69.1435 5.57912 69.1257 5.5613 68.9115 5.43652C68.9115 5.43652 68.4118 5.15133 68.0905 5.04438C67.912 4.99091 67.7335 4.95526 67.5551 4.90178L67.3587 4.84831H67.3052C67.323 4.93743 68.037 5.31175 68.3404 5.40087C68.3939 5.43652 68.4653 5.43652 68.5367 5.45435ZM67.448 5.38305H67.3766C67.3587 5.49 68.037 5.88214 68.3939 5.97126C68.9294 6.06039 69.4113 6.14951 69.8932 6.27428C70.2144 6.34558 70.5357 6.4347 70.8213 6.54165H70.8748C70.8748 6.52383 70.8391 6.48818 70.6428 6.3634C70.5357 6.29211 70.1073 6.04256 69.8396 5.93561C69.0546 5.70214 68.2559 5.5176 67.448 5.38305ZM51.7238 80.2823C54.1333 79.4802 56.5963 78.7672 59.0058 78.1433C59.2914 78.0364 59.3092 77.769 59.3271 77.6442C59.3271 77.5016 59.2557 77.0917 58.863 77.1451C56.3643 77.7868 53.8299 78.5355 51.3311 79.3732C51.2776 79.4089 51.2062 79.4445 51.1527 79.5336C50.9563 79.8188 51.2597 80.3714 51.7238 80.2823ZM60.0767 78.8563C60.0767 78.7137 60.0232 78.3216 59.6484 78.3572C56.8819 79.0524 54.0441 79.8901 51.2776 80.817C51.2241 80.8527 51.1527 80.8705 51.0991 80.9596C50.9563 81.2448 51.2597 81.7796 51.706 81.6904C54.3832 80.7814 57.0961 79.9971 59.7733 79.3198C60.041 79.2128 60.0767 78.9633 60.0767 78.8563ZM59.6662 80.3179C59.6662 80.1753 59.5948 79.801 59.2557 79.8367C57.0068 80.4249 54.7044 81.0844 52.4556 81.833C52.402 81.8509 52.3306 81.8865 52.2949 81.9756C52.1522 82.243 52.4377 82.7777 52.8661 82.6886C55.0435 81.9756 57.2389 81.3161 59.3985 80.7636C59.6305 80.6744 59.6662 80.4249 59.6662 80.3179ZM56.989 82.7421C57.221 82.6351 57.221 82.4034 57.221 82.2965C57.2032 82.1717 57.0961 81.8152 56.757 81.8509C55.3291 82.2608 53.8834 82.7064 52.4734 83.1877C52.4377 83.2055 52.3842 83.2412 52.3663 83.259C52.17 83.4907 52.4556 84.0968 52.9018 84.0076C54.2582 83.562 55.6147 83.1342 56.989 82.7421ZM53.0089 85.291C54.5973 84.7384 56.2037 84.2394 57.7922 83.7937C58.0063 83.7046 58.0242 83.4729 58.0063 83.366C58.0063 83.366 57.9528 82.8847 57.578 82.9382C55.9003 83.4194 54.2225 83.9363 52.5448 84.5067C52.5091 84.5246 52.4556 84.5424 52.4377 84.578C52.2949 84.7919 52.5805 85.3623 53.0089 85.291ZM54.9365 85.8614C55.8289 85.5762 56.7213 85.291 57.6137 85.0415C57.81 84.9523 57.81 84.7206 57.81 84.6315C57.7922 84.5067 57.7029 84.1859 57.3995 84.2215C56.4535 84.4889 55.5076 84.7741 54.5795 85.0949C54.54 85.1124 54.5037 85.1365 54.4724 85.1662C54.2939 85.3623 54.5438 85.9327 54.9365 85.8614ZM55.0257 87.0378C55.579 86.8596 56.1144 86.6813 56.6677 86.5209C56.8462 86.4318 56.8284 86.2357 56.8105 86.1466C56.8105 86.1466 56.7034 85.7188 56.3822 85.7723C55.7932 85.9505 55.222 86.1288 54.633 86.3249C54.5973 86.3427 54.5616 86.3605 54.5438 86.3961C54.401 86.5566 54.6509 87.1091 55.0257 87.0378ZM55.9181 87.8756C56.4179 87.7152 56.9176 87.5547 57.4173 87.4122C57.578 87.3409 57.578 87.127 57.5601 87.0557C57.5601 87.0557 57.4709 86.6457 57.1675 86.6813C56.632 86.8418 56.0966 87.0022 55.5611 87.1804C55.5254 87.1983 55.4897 87.2161 55.4719 87.2339C55.347 87.4121 55.579 87.9291 55.9181 87.8756ZM56.043 88.9272C56.4892 88.7847 56.9533 88.6242 57.3995 88.4995C57.5423 88.4282 57.5244 88.2321 57.5066 88.1608C57.4887 88.0538 57.3638 87.7686 57.1318 87.8043C56.6499 87.9469 56.1501 88.1073 55.6682 88.2677C55.6504 88.2856 55.6147 88.3034 55.5968 88.3212C55.4897 88.4995 55.7396 88.9807 56.043 88.9272ZM56.2394 89.8898C56.6499 89.7472 57.0425 89.6224 57.453 89.4976C57.578 89.4263 57.5601 89.2659 57.5423 89.1768C57.5244 89.0877 57.3995 88.8203 57.1853 88.8381C56.7391 88.9807 56.3108 89.1233 55.8646 89.2659C55.8467 89.2837 55.811 89.3016 55.7932 89.3194C55.7039 89.4798 55.9538 89.9433 56.2394 89.8898ZM57.0425 90.6206C57.3995 90.4958 57.7565 90.3889 58.1134 90.2819C58.2205 90.2285 58.2027 90.0502 58.1848 89.9789C58.167 89.8898 58.0599 89.6402 57.8635 89.6581L56.6856 90.0324C56.6677 90.0502 56.632 90.068 56.632 90.0859C56.5428 90.2106 56.7927 90.6562 57.0425 90.6206ZM57.2746 91.4405C57.578 91.3336 57.8814 91.2445 58.1848 91.1375C58.2741 91.084 58.2562 90.9236 58.2205 90.8701C58.2205 90.8701 58.1134 90.5493 57.9171 90.5671C57.578 90.6741 57.2389 90.781 56.8819 90.9058C56.8819 90.9058 56.8641 90.9236 56.8462 90.9236C56.7748 91.0306 57.0425 91.4762 57.2746 91.4405ZM59.22 92.2605C59.22 92.2605 59.1486 91.9753 59.0058 91.9753C58.756 92.0466 58.5239 92.1179 58.2741 92.207C58.2741 92.207 58.2562 92.207 58.2562 92.2248C58.1848 92.2961 58.399 92.6883 58.5775 92.6883C58.7738 92.617 58.988 92.5635 59.2022 92.4922C59.2557 92.4565 59.2379 92.3139 59.22 92.2605ZM57.9706 92.0822C58.0956 92.0466 58.2205 91.9931 58.3633 91.9574C58.4347 91.9218 58.4168 91.797 58.3811 91.7079C58.3811 91.7079 58.2562 91.4049 58.0956 91.4227C57.9528 91.4762 57.81 91.5118 57.6494 91.5653C57.6494 91.5653 57.6315 91.5653 57.6315 91.5831C57.5244 91.6901 57.7743 92.1 57.9706 92.0822ZM59.577 92.9021C59.577 92.8843 59.5234 92.6348 59.4163 92.6348C59.3271 92.6704 59.22 92.6883 59.1308 92.7239C59.1308 92.7239 59.1129 92.7239 59.1129 92.7417C59.0415 92.813 59.2022 93.1873 59.3271 93.1873C59.3985 93.1695 59.4877 93.1339 59.5591 93.1161C59.5948 93.0804 59.577 92.9913 59.577 92.9021ZM60.5765 75.2557C57.1139 76.0935 53.5622 77.1095 50.0818 78.2859C50.0104 78.3216 49.939 78.3572 49.8854 78.4463C49.7248 78.7137 49.9925 79.3376 50.5101 79.2128C53.8834 78.072 57.3281 77.0739 60.6835 76.2717C60.9691 76.1648 61.0227 75.8796 61.0405 75.7726C61.0227 75.7726 61.0405 75.2023 60.5765 75.2557ZM59.8804 75.024C60.1838 74.9171 60.2373 74.6319 60.2373 74.5071C60.2373 74.5071 60.2373 73.9189 59.7554 73.9724C56.5785 74.7566 53.348 75.6835 50.1532 76.7352C50.0818 76.7708 50.0104 76.8065 49.9568 76.8956C49.7605 77.2164 50.0639 77.8047 50.5815 77.6977C53.6692 76.6817 56.7927 75.7726 59.8804 75.024ZM61.6473 71.976C57.453 72.9385 53.0981 74.1506 48.8503 75.5944C48.7789 75.6301 48.6896 75.6657 48.6361 75.7548C48.4576 76.04 48.7253 76.6995 49.2965 76.5748C53.4372 75.1666 57.6672 73.9902 61.7366 73.0633C62.0578 72.9564 62.1114 72.6533 62.1292 72.5464C62.1292 72.5464 62.1471 71.9403 61.6473 71.976ZM63.6642 69.9975C58.8987 70.9956 53.8834 72.3503 48.9573 73.9724C48.886 74.008 48.7967 74.0437 48.7432 74.1506C48.529 74.4893 48.8324 75.1131 49.3857 74.9884C54.169 73.402 59.0594 72.0829 63.6999 71.1204C64.0211 71.0135 64.0925 70.7104 64.1104 70.5857C64.1282 70.5678 64.1818 69.944 63.6642 69.9975ZM38.5697 65.5413C38.5162 65.5769 38.427 65.6126 38.3734 65.6661C38.1057 65.9334 38.2306 66.789 39.0873 66.6642C47.6901 63.4023 56.9176 60.8356 65.4133 59.1957C65.5143 59.1388 65.6007 59.0593 65.6658 58.9634C65.7308 58.8676 65.7727 58.7579 65.7881 58.6431C65.806 58.4649 65.7703 58.0193 65.1991 58.0015C56.6856 59.6235 47.3153 62.2259 38.5697 65.5413ZM66.1808 59.57C57.346 61.1921 47.5295 63.9193 38.4448 67.4307C38.3913 67.4664 38.302 67.502 38.2663 67.5555C38.0165 67.8229 38.1592 68.6606 38.9981 68.5358C47.9222 65.0779 57.578 62.4041 66.3592 60.7821C66.4603 60.7252 66.5467 60.6457 66.6117 60.5498C66.6768 60.454 66.7186 60.3443 66.7341 60.2295C66.7697 60.0335 66.7519 59.5878 66.1808 59.57ZM65.4847 61.406C57.3459 62.9567 48.3862 65.4522 40.0333 68.6071C39.9797 68.6428 39.8905 68.6784 39.8548 68.7319C39.6049 68.9993 39.7656 69.8192 40.5866 69.6944C48.7967 66.5751 57.578 64.1331 65.6632 62.5824C65.7881 62.4933 65.9844 62.3507 66.0201 62.0298C66.0558 61.8516 66.038 61.4238 65.4847 61.406ZM63.9854 67.4307C64.0033 67.2168 63.9676 66.8425 63.4679 66.8247C57.3638 68.108 50.8671 69.9262 44.6381 72.1542C44.5846 72.1721 44.5132 72.2255 44.4596 72.2612C44.1384 72.6355 44.531 73.3307 45.1379 73.1881C51.2241 70.9956 57.578 69.231 63.5392 67.9833C63.8962 67.8585 63.9676 67.5555 63.9854 67.4307ZM63.1109 65.9691C63.1287 65.7908 63.0573 65.3274 62.5576 65.363C56.2394 66.7177 49.5463 68.6428 43.1567 70.9778C43.0853 71.0135 42.9782 71.0669 42.9247 71.1739C42.7105 71.5304 43.0675 72.1899 43.6743 72.0295C49.939 69.7479 56.4892 67.8763 62.6825 66.5395C63.0395 66.4147 63.093 66.0938 63.1109 65.9691ZM64.8065 63.2419C57.346 64.7035 49.2429 66.9673 41.6218 69.8014C41.5682 69.837 41.4968 69.8727 41.4433 69.9262C41.1756 70.1935 41.3362 70.9956 42.1572 70.8887C49.6356 68.108 57.578 65.88 64.8957 64.454C65.0563 64.3827 65.3062 64.2757 65.3419 63.8836C65.3597 63.6875 65.3419 63.2597 64.8065 63.2419ZM64.3246 68.2685C58.9344 69.3558 53.2052 70.9065 47.6187 72.7959C47.5473 72.8316 47.4581 72.8672 47.3867 72.9742C47.1904 73.2772 47.4581 73.9545 48.0649 73.8298C53.5086 71.9938 59.1129 70.4787 64.3781 69.4092C64.7172 69.3023 64.7886 68.9993 64.8065 68.8567C64.8065 68.6963 64.7708 68.2328 64.3246 68.2685ZM48.4933 53.8127C48.4754 53.6344 48.297 53.1353 47.6723 53.2423C43.1032 54.5791 38.5162 56.1299 34.1077 57.841C34.0185 57.8945 33.9114 57.948 33.8222 58.0728C33.5544 58.4649 33.84 59.2492 34.6075 59.0353C38.9803 57.3419 43.5137 55.809 48.0471 54.49C48.4754 54.3118 48.5111 53.9909 48.4933 53.8127ZM37.3382 58.6431C37.0348 59.0709 37.3918 59.7839 38.1057 59.6057C43.1032 57.7876 48.2434 56.1833 53.3301 54.8287C53.4682 54.7889 53.5889 54.7041 53.673 54.5878C53.7571 54.4715 53.7998 54.3304 53.7942 54.187C53.7763 54.0087 53.6157 53.5096 53.0267 53.5988C47.9043 54.9534 42.6927 56.5755 37.6416 58.4114C37.5218 58.4605 37.417 58.5404 37.3382 58.6431ZM54.3832 55.096C48.0828 56.7181 41.6396 58.7679 35.5177 61.1386C35.4285 61.1921 35.3214 61.2455 35.2322 61.3703C34.9823 61.7446 35.2857 62.5111 36.0353 62.315C42.0858 59.98 48.4576 57.948 54.6866 56.3438C55.1149 56.1833 55.1506 55.8447 55.1506 55.7021C55.1328 55.6842 55.0792 54.9891 54.3832 55.096ZM56.4535 57.1459C56.4535 56.9676 56.3108 56.4685 55.7218 56.5577C48.9216 58.2688 41.9252 60.4791 35.3214 63.0815C35.2322 63.1171 35.1251 63.1884 35.0537 63.2954C34.7859 63.7053 35.1786 64.4005 35.8568 64.2223C42.3714 61.6555 49.2786 59.4631 55.9895 57.7876C56.4179 57.6271 56.4535 57.2885 56.4535 57.1459ZM59.4877 58.2154C59.4877 58.0728 59.3806 57.538 58.8095 57.6093C51.5989 59.3027 44.067 61.5842 36.9634 64.3292C36.8742 64.3827 36.7492 64.454 36.6957 64.5431C36.4637 64.8996 36.7849 65.6482 37.4989 65.4522C44.4953 62.7428 51.9201 60.4969 59.0415 58.8214C59.2022 58.7501 59.4877 58.6075 59.4877 58.2154ZM47.0119 52.3689C47.0119 52.3689 46.9048 51.6559 46.173 51.7985C40.89 53.3849 35.607 55.2386 30.5738 57.2885C30.4846 57.3419 30.3775 57.3954 30.2882 57.5202C30.0384 57.9123 30.3418 58.6966 31.0914 58.4827C36.071 56.4329 41.3005 54.6148 46.5478 53.0284C47.0119 52.868 47.0297 52.5115 47.0119 52.3689ZM35.1786 54.9891C35.8211 54.7395 36.4815 54.5078 37.1241 54.2761C37.5346 54.08 37.5703 53.777 37.5524 53.5631C37.5524 53.5631 37.4275 52.8501 36.6778 53.0284C36.0175 53.2601 35.3571 53.5096 34.7146 53.7414C34.6253 53.7948 34.5004 53.8483 34.4111 53.9731C34.1077 54.4365 34.429 55.1852 35.1786 54.9891ZM28.432 66.0226C27.8966 66.2721 27.3611 66.5216 26.8435 66.7712C26.7365 66.8425 26.6829 66.8781 26.6294 67.0029C26.4509 67.4129 26.8971 68.0724 27.4861 67.8763C28.0037 67.6268 28.5213 67.3951 29.0389 67.1455C29.3601 66.9494 29.3423 66.6821 29.2709 66.486C29.2887 66.4503 29.0567 65.8087 28.432 66.0226ZM28.9318 56.0407L28.8247 56.0942C28.2357 56.3438 27.6467 56.5933 27.0756 56.8429C26.9863 56.8963 26.8792 56.9498 26.8078 57.0924C26.5401 57.5558 26.8971 58.2688 27.611 58.0549C28.1822 57.8054 28.7533 57.5558 29.3423 57.3241L29.4494 57.2706C29.8599 57.0389 29.8599 56.7181 29.8242 56.5398C29.7885 56.3438 29.5386 55.8447 28.9318 56.0407ZM29.2173 53.9374C28.8604 54.08 28.5034 54.2405 28.1465 54.383C26.5937 55.0247 25.1123 55.6842 23.6844 56.3438C23.5952 56.3972 23.4881 56.4507 23.4167 56.5933C23.1668 57.0389 23.5416 57.7697 24.202 57.5558C25.612 56.9142 27.0934 56.2546 28.6284 55.613C28.9853 55.4704 29.3423 55.3099 29.6992 55.1673C30.1276 54.9356 30.1097 54.5791 30.0919 54.4365C30.0562 54.2939 29.842 53.7592 29.2173 53.9374ZM24.7196 54.7574C24.7196 54.7574 24.5411 54.0444 23.8629 54.2761C22.0781 55.0782 20.3825 55.8981 18.7941 56.7003C18.7227 56.7537 18.6334 56.8072 18.562 56.9498C18.3657 57.3598 18.687 58.1441 19.3295 57.9123C20.9001 57.1102 22.5778 56.3081 24.3627 55.506C24.7732 55.2565 24.7553 54.9 24.7196 54.7574ZM18.4014 51.6559C18.3657 51.4598 18.1515 50.9607 17.6339 51.1568C15.4386 52.2441 13.4575 53.3492 11.6548 54.4187C11.5834 54.4722 11.512 54.5256 11.4585 54.6682C11.2978 55.0782 11.5656 55.8981 12.1189 55.6664C13.9037 54.5969 15.9027 53.5096 18.0801 52.4223C18.4549 52.155 18.4371 51.7985 18.4014 51.6559ZM17.2413 48.1622C17.2413 48.1622 17.1163 47.4314 16.4916 47.6632C13.1897 49.303 10.3341 50.9429 7.96025 52.5293C7.90671 52.5828 7.83532 52.6362 7.78177 52.7788C7.63899 53.1888 7.85316 54.0266 8.35291 53.7948C10.7446 52.2084 13.6003 50.5686 16.8843 48.9287C17.2591 48.6792 17.2591 48.3227 17.2413 48.1622ZM16.9914 50.3547C16.9914 50.3547 16.8486 49.6239 16.2418 49.8556C13.5646 51.2281 11.1908 52.5828 9.12038 53.9196C9.06684 53.9731 8.99544 54.0266 8.9419 54.1692C8.79911 54.5791 9.04899 55.3991 9.54873 55.1673C11.8459 53.6984 14.2168 52.3479 16.6523 51.1211C17.0271 50.8538 17.0092 50.4973 16.9914 50.3547ZM17.5625 46.0055C17.5447 45.8094 17.3662 45.3103 16.8308 45.5064C12.9042 47.4314 9.56658 49.3387 6.87152 51.1924C6.81797 51.2459 6.74658 51.2994 6.69304 51.442C6.55025 51.8519 6.76443 52.6897 7.22848 52.458C9.92354 50.622 13.2611 48.697 17.1877 46.7719C17.5804 46.5224 17.5804 46.1481 17.5625 46.0055ZM18.2229 53.7948C18.2229 53.7948 18.0444 53.0818 17.4554 53.2957C16.3846 53.8483 15.3672 54.383 14.4034 54.9178C14.332 54.9713 14.2428 55.0247 14.1892 55.1673C14.0108 55.5773 14.2963 56.3794 14.8853 56.1477C15.8491 55.613 16.8665 55.0604 17.9195 54.5256C18.2765 54.2939 18.2586 53.9374 18.2229 53.7948ZM19.7043 55.0782C19.7043 55.0782 19.5258 54.3652 18.9011 54.5969C17.8124 55.1317 16.7772 55.6843 15.7956 56.219C15.7242 56.2725 15.6349 56.3259 15.5814 56.4685C15.4029 56.8785 15.7063 57.6806 16.3132 57.4311C17.2948 56.8963 18.33 56.3616 19.4009 55.809C19.7757 55.5773 19.74 55.2208 19.7043 55.0782ZM28.7354 49.6595C30.0384 49.1248 31.377 48.6257 32.7156 48.1266C33.1796 47.8949 33.1796 47.5384 33.1796 47.3958C33.1666 47.2985 33.1321 47.2054 33.0785 47.1231C33.0249 47.0409 32.9536 46.9717 32.8698 46.9204C32.7861 46.8692 32.6919 46.8373 32.5942 46.827C32.4965 46.8167 32.3977 46.8284 32.3051 46.861C30.9665 47.3601 29.6278 47.877 28.3071 48.4118C28.1419 48.4796 28.0082 48.6068 27.9323 48.7683C27.736 49.1782 28.0037 49.8734 28.7354 49.6595ZM27.4504 39.7668C27.4504 39.7668 27.3611 39.0538 26.6294 39.2677C25.5942 39.6777 24.559 40.0877 23.5416 40.5155C18.0266 42.8148 13.3504 45.1677 9.54873 47.4314C9.47734 47.4849 9.40595 47.5384 9.33456 47.681C9.13823 48.0909 9.31671 48.9287 9.85215 48.697C13.6359 46.4333 18.3478 44.0804 23.8629 41.781C24.8803 41.3532 25.9154 40.9433 26.9506 40.5333C27.4325 40.2659 27.4504 39.9094 27.4504 39.7668ZM5.92557 47.8414C5.74709 48.1088 5.72924 49.1248 6.31823 48.9465C10.5125 46.0768 16.2775 43.0287 23.4167 40.052C24.7553 39.4816 26.1296 38.9469 27.5039 38.4122C27.968 38.1804 28.0037 37.8239 27.9858 37.6813C27.9858 37.6813 27.9144 36.9684 27.1827 37.1823C25.8084 37.717 24.4519 38.2696 23.1133 38.8221C15.9919 41.7988 10.2448 44.8469 6.05051 47.6988C6.01481 47.7345 5.96127 47.7879 5.92557 47.8414ZM6.31823 45.5598C6.28253 45.5955 6.21114 45.649 6.17544 45.7024C5.97911 46.0055 5.96127 46.968 6.53241 46.7897C10.6553 44.0447 16.2061 41.1572 22.9884 38.323C25.3086 37.3605 27.6646 36.4336 30.0741 35.5424C30.5381 35.3285 30.5738 34.972 30.5738 34.8472C30.5559 34.562 30.3061 34.2055 29.7706 34.3481C27.379 35.2215 25.0052 36.1484 22.7028 37.111C15.9562 39.9451 10.4233 42.8327 6.31823 45.5598ZM28.6462 34.2947C29.1103 34.0629 29.146 33.7243 29.146 33.5817C29.146 33.3143 28.9139 32.9578 28.3606 33.1004C26.326 33.8669 24.3091 34.6511 22.3458 35.4711C14.6711 38.6795 8.58494 41.9771 4.31924 45.0786C4.28354 45.132 4.23 45.2033 4.21215 45.2568C4.06937 45.5777 4.06937 46.4154 4.55127 46.255C8.78127 43.1892 14.8853 39.8916 22.5957 36.6653C24.5947 35.8454 26.6115 35.0433 28.6462 34.2947ZM4.65835 42.9931C4.47987 43.2783 4.2657 43.9021 4.72975 44.2052C4.76544 44.1873 4.81899 44.1695 4.87253 44.1517C9.04899 41.2106 14.921 38.0735 22.2566 35.0076C25.1837 33.7777 28.2 32.6191 31.2699 31.5497C31.5911 31.4071 31.7696 31.1753 31.7875 30.8723C31.7875 30.6941 31.6982 30.2841 31.0022 30.3911C27.9501 31.4605 24.9516 32.6191 22.0424 33.8312C14.7247 36.8971 8.88835 40.0164 4.65835 42.9931ZM27.8966 31.0506C29.2173 30.5515 30.556 30.088 31.8946 29.6246C32.3586 29.4107 32.3943 29.0899 32.3943 28.9651C32.3943 28.9651 32.3586 28.3234 31.6268 28.5016C30.3061 28.9651 28.9675 29.4285 27.6646 29.9276C27.5017 29.9882 27.3636 30.1011 27.2719 30.2485C27.022 30.6228 27.1827 31.2466 27.8966 31.0506ZM23.9878 32.5657C24.4341 32.3339 24.4876 32.0131 24.4876 31.8705C24.4876 31.8705 24.4697 31.211 23.7558 31.4249C23.0776 31.6923 22.3994 31.9774 21.7211 32.2626C13.5289 35.685 7.19278 39.1964 2.98063 42.4762C2.69506 42.9574 2.71291 43.5278 2.99848 43.6704C3.03418 43.6526 3.08772 43.6348 3.12342 43.6348C7.29987 40.4085 13.6716 36.8792 21.9175 33.4212C22.6135 33.1182 23.2918 32.8509 23.9878 32.5657ZM32.6263 27.6639C32.7691 27.5569 33.0011 27.3787 33.0011 27.0757C33.0011 26.8974 32.9119 26.5231 32.2337 26.63C28.5748 27.8778 24.9516 29.2324 21.4713 30.6941C13.047 34.2234 6.62165 37.8239 2.53443 41.1037C2.28456 41.4067 2.14177 41.9236 2.40949 42.3336C2.46304 42.3336 2.51658 42.3158 2.57013 42.2979C6.69304 39.0004 13.1719 35.3641 21.6676 31.817C25.1658 30.3376 28.8068 28.9651 32.6263 27.6639ZM35.607 24.6337C35.607 24.4733 35.4463 24.0455 34.8395 24.1881C31.5733 25.2397 28.3071 26.3805 25.148 27.6104C25.023 27.6817 24.8803 27.7352 24.7553 27.9312C24.5233 28.2877 24.6482 28.8938 25.3443 28.6977C28.5391 27.4678 31.8232 26.3092 35.1251 25.2575C35.5713 25.0615 35.607 24.7585 35.607 24.6337ZM24.1128 27.5391C28.5213 25.8101 33.0904 24.2237 37.6595 22.8512C38.1057 22.673 38.1414 22.37 38.1414 22.263C38.1414 22.263 38.0878 21.6748 37.3739 21.8352C32.8405 23.1899 28.3071 24.7585 23.9522 26.4696C23.8629 26.5231 23.6309 26.63 23.506 26.8974C23.3632 27.2361 23.506 27.7352 24.1128 27.5391ZM3.98013 39.5351C8.06734 36.5762 13.9572 33.3856 21.4177 30.2663L21.5248 30.2128C21.971 29.9811 22.0246 29.6602 22.0424 29.5355C22.0603 29.375 21.9532 28.9294 21.3642 29.1255L21.2571 29.179C13.868 32.2805 8.03165 35.4354 3.90873 38.43C3.67671 38.7152 3.49823 39.4103 3.85519 39.6064C3.89089 39.5708 3.94443 39.5529 3.98013 39.5351ZM3.37329 38.2874C3.40899 38.2696 3.46253 38.2517 3.49823 38.2517C7.40696 35.3285 13.1184 32.1735 20.4182 29.072C20.8466 28.8403 20.918 28.5195 20.918 28.3947C20.9358 28.2343 20.8466 27.8065 20.2933 27.9847C13.0827 31.0506 7.40696 34.1877 3.48038 37.1288C3.24835 37.414 3.05203 38.1091 3.37329 38.2874ZM44.4775 19.0367C44.4775 19.0367 44.3882 18.4842 43.6743 18.6089C43.0496 18.7694 42.4071 18.9476 41.7646 19.108C41.6396 19.1615 41.4968 19.1972 41.3897 19.3576C41.1756 19.6784 41.3719 20.2132 42.1037 20.0706C42.7462 19.8923 43.3887 19.7319 44.0313 19.5715C44.4775 19.4289 44.4953 19.1437 44.4775 19.0367ZM32.2158 21.9778C29.6814 22.8156 27.1648 23.7246 24.7018 24.6693C24.6125 24.7228 24.3805 24.8298 24.2556 25.0793C24.0949 25.4001 24.2377 25.8814 24.8446 25.7032C27.3433 24.7406 29.8777 23.8316 32.4478 22.976C32.8941 22.7799 32.9476 22.4947 32.9476 22.37C32.9476 22.2274 32.8227 21.8352 32.2158 21.9778ZM19.3473 27.9669C19.7578 27.753 19.8292 27.4322 19.8471 27.3074C19.8649 27.147 19.7935 26.7192 19.2581 26.9152C12.8506 29.6959 7.74608 32.5122 4.12291 35.1324C3.81949 35.3998 3.60532 36.1484 3.92658 36.3267C3.96228 36.3088 4.01582 36.291 4.05152 36.291C7.71038 33.6173 12.8863 30.7832 19.3473 27.9669ZM37.3561 19.518C37.3561 19.3754 37.2668 19.0367 36.6065 19.108C31.2426 20.715 25.9645 22.595 20.793 24.7406C14.0286 27.5748 8.60279 30.4624 4.76544 33.1717C4.56911 33.3856 4.24785 33.8847 4.47987 34.3303C4.53342 34.3303 4.60481 34.3125 4.64051 34.2947C8.53139 31.5497 14.0108 28.6264 20.8644 25.7566C25.9868 23.6177 31.4127 21.6926 36.9813 20.0171C37.1597 19.928 37.3561 19.7854 37.3561 19.518ZM39.7834 17.4147C39.7834 17.4147 39.712 16.8978 39.0338 17.0226C34.1077 18.4129 29.146 20.0527 24.3805 21.8887C24.2913 21.9422 24.0592 22.0491 23.9343 22.2808C23.7737 22.5838 23.8986 23.0473 24.4876 22.869C29.3244 20.9975 34.3397 19.3398 39.3372 17.9316C39.7656 17.789 39.8013 17.5216 39.7834 17.4147ZM41.3541 15.044C37.7487 15.9887 34.0899 17.0939 30.4846 18.3059C30.3953 18.3416 30.1633 18.4485 30.0562 18.6624C29.9134 18.9476 30.0562 19.3754 30.663 19.215C34.3219 17.9851 38.0165 16.8621 41.6753 15.8996C42.1037 15.757 42.1215 15.5075 42.1037 15.4005C42.1037 15.4183 42.0144 14.9192 41.3541 15.044ZM30.8772 15.2579C33.1618 14.4915 35.4642 13.7963 37.7666 13.1368C38.1592 12.9942 38.1949 12.7625 38.1949 12.6733C38.1949 12.6733 38.1414 12.2277 37.5167 12.3525C35.2678 12.9942 33.0011 13.6893 30.7523 14.4202C30.5829 14.4773 30.438 14.5905 30.3418 14.741C30.1811 15.0262 30.3239 15.4005 30.8772 15.2579ZM40.0333 14.1171C37.0884 14.9192 34.1077 15.8105 31.1628 16.7908C30.982 16.8548 30.83 16.9812 30.7344 17.1473C30.5916 17.4147 30.7344 17.8247 31.3234 17.6821C34.3219 16.6839 37.3382 15.7748 40.3367 14.9727C40.7472 14.8301 40.7651 14.5806 40.7651 14.4915C40.7472 14.3667 40.5866 14.0102 40.0333 14.1171ZM38.7304 13.2081C35.839 14.0102 32.9297 14.9014 30.0741 15.864C29.9003 15.9229 29.7543 16.0434 29.6635 16.2026C29.5208 16.47 29.6457 16.8621 30.2168 16.7195C33.1439 15.7392 36.0889 14.8301 39.0338 14.0102C39.4443 13.8676 39.4622 13.6359 39.4622 13.5289C39.4443 13.5467 39.3729 13.0833 38.7304 13.2081ZM29.3423 13.9211C29.1995 14.1706 29.3066 14.5449 29.8599 14.4023C32.6442 13.4576 35.4463 12.602 38.2485 11.8356C38.6411 11.693 38.659 11.4791 38.6411 11.39C38.6411 11.39 38.5697 10.9622 37.9629 11.0869C35.2143 11.8356 32.4657 12.6912 29.7349 13.618C29.6635 13.6359 29.4494 13.725 29.3423 13.9211ZM32.1444 12.5129C32.6977 12.3347 33.2332 12.1742 33.7865 11.996C34.1613 11.8534 34.2148 11.6395 34.2148 11.5504C34.2148 11.4256 34.1077 11.1582 33.608 11.2652C33.0725 11.4256 32.5371 11.6039 32.0016 11.7643C31.9124 11.7999 31.7161 11.8712 31.609 12.0673C31.4841 12.299 31.5911 12.6377 32.1444 12.5129ZM25.1301 20.231C24.5411 20.4627 23.9522 20.6766 23.381 20.9083C23.2918 20.9618 23.0776 21.0509 22.9348 21.3005C22.7742 21.6035 22.8456 22.0491 23.4346 21.8709C24.0235 21.6391 24.6125 21.4074 25.2194 21.1757C25.6299 20.9796 25.7191 20.6944 25.7191 20.5875C25.737 20.5875 25.7905 20.0349 25.1301 20.231ZM26.4866 18.9833C26.5044 18.8407 26.433 18.4842 25.8976 18.6268C24.1306 19.2863 22.3815 19.9814 20.686 20.6944C20.1684 20.9083 19.6508 21.1401 19.1332 21.3539C19.0439 21.4074 18.8476 21.5144 18.7048 21.7461C18.5263 22.0491 18.5799 22.4947 19.1153 22.3165C19.6329 22.0848 20.1505 21.8709 20.686 21.6391C22.4172 20.9083 24.1842 20.2132 25.9868 19.5537C26.3973 19.3576 26.4687 19.0902 26.4866 18.9833ZM15.867 25.5249C11.7084 27.4856 8.21013 29.4463 5.47937 31.3179C5.3122 31.4556 5.19339 31.6429 5.14025 31.8527C5.01532 32.227 5.06886 32.5657 5.33658 32.4231C8.10304 30.5337 11.637 28.5373 15.867 26.5587C15.9911 26.4957 16.0991 26.4051 16.1826 26.2939C16.2662 26.1826 16.323 26.0537 16.3489 25.9171C16.3846 25.7566 16.3489 25.3467 15.867 25.5249ZM4.89038 31.2466C4.94392 31.2466 4.99747 31.2466 5.05101 31.211C8.0138 29.1255 11.9225 26.9331 16.6701 24.7406C17.0449 24.5267 17.1342 24.2415 17.1699 24.1168C17.1699 24.1168 17.2591 23.5286 16.7058 23.7425C12.0118 25.8992 8.17443 28.056 5.24734 30.1237C5.01532 30.3198 4.69405 30.9436 4.89038 31.2466ZM15.9384 23.7425C16.2953 23.5286 16.4024 23.2434 16.4381 23.1364C16.4381 23.1364 16.5452 22.566 16.0097 22.7621C12.0118 24.6337 8.65633 26.5231 6.03266 28.3234C5.80063 28.5195 5.46152 29.1255 5.65785 29.4107C5.71139 29.4107 5.76494 29.4107 5.81848 29.375C8.47785 27.5569 11.8868 25.6497 15.9384 23.7425ZM4.60481 28.9116C4.64051 28.9116 4.69405 28.8938 4.72975 28.8938C8.37076 26.1666 13.7609 23.2077 20.6681 20.3201C22.6492 19.5002 24.6661 18.6981 26.7008 17.9494C26.9863 17.8247 27.147 17.6464 27.2005 17.4147C27.2184 17.2721 27.2005 16.9691 26.6294 17.076C24.6125 17.8068 22.6314 18.5911 20.686 19.3932C13.9037 22.2274 8.58494 25.1328 5.01532 27.8243C4.83684 28.0204 4.51557 28.4838 4.60481 28.9116ZM5.56861 27.1113C9.12038 24.5446 14.2249 21.7817 20.7038 19.0724C21.2749 18.8407 21.8639 18.5911 22.4351 18.3594C22.8277 18.1633 22.917 17.9138 22.9348 17.8068C22.9705 17.6108 22.8813 17.3434 22.4351 17.486L20.7216 18.1812C14.3677 20.837 9.33456 23.5642 5.80063 26.131C5.80063 26.131 5.22949 26.8261 5.44367 27.147C5.51506 27.1291 5.55076 27.1113 5.56861 27.1113ZM20.8644 16.6482C20.9001 16.6304 20.918 16.6304 20.9537 16.6126C21.3285 16.4343 21.4356 16.1848 21.4534 16.0778C21.507 15.8818 21.4534 15.6501 21.0251 15.7748C20.9894 15.7927 20.9715 15.7927 20.9358 15.8105C14.4213 18.5377 9.3881 21.3361 6.01481 23.9385C6.01481 23.9385 5.47937 24.598 5.58646 24.9189C5.6043 24.9011 5.64 24.9011 5.65785 24.8832C9.06684 22.2808 14.2071 19.4289 20.8644 16.6482ZM21.0072 15.4896C21.2928 15.3649 21.5605 15.2579 21.8461 15.1331C22.203 14.9549 22.3101 14.7232 22.3458 14.634C22.3994 14.438 22.328 14.2241 21.9532 14.3489C21.6854 14.4558 21.3999 14.5806 21.1322 14.6875C14.5641 17.4325 9.54873 20.2488 6.31823 22.8512C6.19329 22.9938 5.81848 23.5107 5.81848 23.8138C5.85418 23.8138 5.88987 23.7959 5.90772 23.7959C9.15608 21.1757 14.2963 18.3059 21.0072 15.4896ZM4.51557 23.6533C4.76544 23.2255 4.78329 23.1899 4.80114 23.1721L4.78329 23.1899C4.72975 23.2612 4.69405 23.3325 4.64051 23.4038L4.23 24.0811L3.94443 24.598C4.01582 24.4733 4.10506 24.3485 4.17646 24.2237C4.21215 24.1702 4.28354 24.0633 4.51557 23.6533ZM3.55177 25.3288C3.7838 24.8832 3.80165 24.8654 3.81949 24.8298L3.80165 24.8476C3.76595 24.9189 3.73025 24.9724 3.69456 25.0437L3.03418 26.2379C3.08772 26.131 3.15911 26.024 3.23051 25.8992C3.24835 25.8636 3.31975 25.7388 3.55177 25.3288ZM7.37127 21.2113C7.24633 21.3183 6.78228 21.9065 6.81797 22.1917C6.83582 22.1739 6.87152 22.1739 6.88937 22.1561C9.58443 20.0706 13.4932 17.8247 18.4549 15.5788C18.7762 15.4005 18.9011 15.1688 18.9547 15.0797C18.9547 15.0797 19.1332 14.6162 18.6691 14.7945C13.8144 16.9691 9.99494 19.1615 7.37127 21.2113ZM24.0592 11.9782C24.0771 11.9425 24.1663 11.5682 23.6844 11.7286C22.9527 12.0138 22.2387 12.299 21.5248 12.602C15.4029 15.1688 10.7267 17.789 7.74608 20.1775C7.58544 20.3379 7.33557 20.6231 7.15709 21.0509C7.17494 21.0688 7.19278 21.1044 7.21063 21.1222C10.2627 18.6802 15.0816 15.9887 21.3642 13.3507C22.096 13.0477 22.8277 12.7446 23.5773 12.4594C23.8808 12.299 24.0057 12.1029 24.0592 11.9782ZM22.8099 13.012C22.328 13.2081 21.8461 13.4041 21.382 13.6002C21.2928 13.6359 21.0608 13.7606 20.9358 14.0102C20.8287 14.2063 20.793 14.5271 21.2571 14.3667C21.739 14.1706 22.2387 13.9567 22.7206 13.7606C23.0776 13.6002 23.1847 13.3685 23.2025 13.2794C23.2025 13.2794 23.3275 12.8516 22.8099 13.012ZM37.1776 7.66461C37.1776 7.66461 37.1241 7.32594 36.5886 7.43289C35.6248 7.70025 34.661 7.98545 33.6972 8.27064C33.6258 8.30629 33.4473 8.35977 33.3581 8.52019C33.251 8.71626 33.3759 9.00146 33.8578 8.89451C34.8573 8.59149 35.839 8.30629 36.8385 8.03892C37.1597 7.91415 37.1954 7.7359 37.1776 7.66461ZM38.3556 6.09604C36.0532 6.68425 33.7151 7.36159 31.3948 8.11022C31.3234 8.14587 31.1449 8.19935 31.0557 8.35977C30.9308 8.55584 31.02 8.82321 31.4841 8.71626C33.8757 7.9498 36.2673 7.25464 38.659 6.6486C38.9803 6.54165 38.9803 6.38123 38.9803 6.30993C38.9624 6.30993 38.8732 5.98909 38.3556 6.09604ZM24.8803 10.7661C24.8803 10.7661 25.0052 10.374 24.5233 10.5344L23.1847 11.0691C22.8634 11.2295 22.7385 11.4256 22.7206 11.5147C22.7206 11.5147 22.56 11.9247 23.0419 11.7643C23.5059 11.586 23.9522 11.39 24.4162 11.2117C24.6175 11.1207 24.7813 10.9634 24.8803 10.7661ZM28.6284 9.01928C28.1643 9.1797 27.7003 9.34012 27.2541 9.50055C27.0803 9.55946 26.9343 9.67996 26.8435 9.83921C26.7543 10.0175 26.7722 10.2848 27.2184 10.1601C27.6824 9.99964 28.1643 9.82139 28.6284 9.66097C28.9675 9.51837 29.0389 9.34012 29.0567 9.251C29.0746 9.16188 29.0389 8.91233 28.6284 9.01928ZM20.3468 12.8694C20.6681 12.709 20.793 12.4951 20.8287 12.406C20.8823 12.299 20.9358 12.0138 20.561 12.1564C19.7043 12.5307 18.9011 12.8872 18.1158 13.2615C17.7232 13.4576 17.5982 13.7606 17.5804 13.7963C17.5625 13.8676 17.4733 14.135 17.8124 14.0102C18.6156 13.618 19.4723 13.2437 20.3468 12.8694ZM14.4034 15.7035C14.6711 15.5431 14.8318 15.3114 14.8853 15.2044C15.0103 14.9905 14.9746 14.9371 14.9389 14.8658C14.8853 14.8479 14.8675 14.8658 14.7961 14.9014C12.0475 16.3809 9.81646 17.8247 8.19228 19.1793C7.9781 19.3754 7.65684 19.8389 7.5676 20.0706C7.5676 20.0884 7.58544 20.1062 7.58544 20.1062C7.60329 20.1062 7.60329 20.0884 7.62114 20.0884C9.29886 18.6981 11.5834 17.2186 14.4034 15.7035ZM21.8461 11.3543C23.3989 10.7126 24.9695 10.0888 26.6651 9.4649C26.7722 9.3936 26.9506 9.28665 27.022 9.1084C27.0399 9.07275 27.022 9.01928 27.0399 8.98363C26.9149 8.84103 26.9149 8.84103 26.6651 8.89451C25.0944 9.4649 23.5595 10.0709 22.0603 10.6948C14.1535 14.0102 8.83481 17.4325 6.80013 20.1953L5.99696 21.3361C7.99595 18.4485 13.5289 14.8479 21.8461 11.3543ZM32.9833 6.91597C32.8762 7.09422 32.9833 7.34376 33.4473 7.23681C34.8216 6.82685 36.2138 6.4347 37.5881 6.07821C37.9094 5.97126 37.9094 5.82867 37.9094 5.75737C37.9094 5.75737 37.838 5.47217 37.3382 5.5613C35.9996 5.91779 34.661 6.29211 33.3224 6.70207C33.2332 6.7199 33.0547 6.77337 32.9833 6.91597ZM22.1316 10.4453C24.6482 9.3936 27.2719 8.41324 30.0205 7.50418C30.1276 7.43289 30.2882 7.34376 30.3239 7.18334C30.3239 7.14769 30.3061 7.11204 30.3239 7.07639C30.1633 6.95162 30.1633 6.95162 29.9134 6.98727C27.3433 7.84285 24.791 8.78756 22.3637 9.80357C15.0103 12.8872 10.0128 16.06 7.9424 18.6624L7.10354 19.7854C9.15608 17.0582 14.3856 13.7072 22.1316 10.4453ZM22.4708 9.57184C24.6839 8.64496 26.9685 7.78938 29.3066 7.00509C29.5208 6.91597 29.6457 6.80902 29.6992 6.66642C29.6992 6.63077 29.7528 6.38123 29.3244 6.48818C27.0756 7.25464 24.8624 8.07457 22.7206 8.96581C21.0072 9.67879 19.4366 10.3918 18.0087 11.1226C18.0087 11.1226 17.3841 11.5147 17.4554 11.8178C17.4911 11.8178 17.5625 11.7999 17.5982 11.7821C19.0796 11.0691 20.7038 10.3205 22.4708 9.57184ZM14.7961 13.2972C15.0281 13.1546 15.2066 12.9407 15.2601 12.8516C15.4208 12.6555 15.4029 12.602 15.4029 12.5486C15.3672 12.5486 15.3315 12.5664 15.2958 12.5664C12.4401 14.1884 10.3697 15.7748 9.15608 17.183L8.9776 17.379L8.26367 18.2525C9.49519 16.7552 11.7084 15.0618 14.7961 13.2972ZM15.0995 12.5486C15.2958 12.4238 15.4743 12.2277 15.5635 12.1208C15.7242 11.9247 15.742 11.8891 15.742 11.8178C15.7063 11.8178 15.6706 11.8356 15.6528 11.8356C13.3682 13.1903 11.6548 14.4736 10.5304 15.6501L9.53089 16.773C10.6732 15.4718 12.5651 14.028 15.0995 12.5486ZM19.1153 10.2492C19.1689 10.1779 19.2046 10.1066 19.2224 10.0709C19.2581 9.94616 19.1332 9.99964 19.0796 10.0175C18.4549 10.3205 17.8481 10.6235 17.277 10.9265C16.9735 11.1048 16.6166 11.5147 16.6701 11.6217C16.7058 11.6217 16.7237 11.6217 16.7772 11.6039C17.3662 11.283 17.9909 10.9622 18.6513 10.6591C18.9011 10.5166 19.0618 10.3205 19.1153 10.2492ZM20.5075 9.60749C20.4718 9.69662 20.4718 9.78574 20.686 9.69662L21.7568 9.21535C21.9365 9.12506 22.0947 8.99743 22.2209 8.84103C22.2387 8.82321 22.2566 8.80538 22.2566 8.78756C22.2923 8.73409 22.3637 8.53801 22.0781 8.64496C21.7211 8.80538 21.382 8.94798 21.0429 9.1084C20.6503 9.30447 20.5075 9.58967 20.5075 9.60749ZM37.1597 4.45617C37.1597 4.45617 37.0884 4.20662 36.6422 4.29574C35.839 4.50964 35.018 4.74136 34.197 4.97308C34.08 4.99916 33.9777 5.06942 33.9114 5.16915C33.8222 5.31175 33.9292 5.52565 34.3576 5.43652C35.1965 5.18698 36.0353 4.95526 36.8742 4.74136C37.1597 4.63441 37.1597 4.50964 37.1597 4.45617ZM34.5718 4.22445C34.1791 4.33139 33.8043 4.43834 33.4116 4.56311C33.3581 4.58094 33.1975 4.63441 33.1261 4.74136C33.0368 4.88396 33.1261 5.08003 33.5187 4.97308C33.9292 4.84831 34.3219 4.74136 34.7324 4.61659C35.018 4.52746 35.0358 4.40269 35.0358 4.34922C35.0358 4.36704 35.0001 4.13532 34.5718 4.22445ZM30.5203 5.29393C31.6625 4.91961 32.8048 4.58094 33.9471 4.24227C34.2148 4.15315 34.2327 4.02837 34.2327 3.99272C34.2327 3.93925 34.1613 3.79665 33.8043 3.86795C32.7156 4.1888 31.609 4.52746 30.5203 4.88396C30.4489 4.90178 30.2704 4.97308 30.199 5.11568C30.1276 5.22263 30.1633 5.38305 30.5203 5.29393ZM22.0603 8.11022C21.7211 8.27064 21.5605 8.52019 21.5427 8.57366C21.507 8.66279 21.507 8.73409 21.7033 8.66279C22.0424 8.52019 22.3994 8.35977 22.7385 8.21717C23.0062 8.0924 23.1311 7.93198 23.1847 7.86068C23.2025 7.82503 23.2382 7.78938 23.2382 7.75373C23.2739 7.64678 23.2204 7.62896 23.0419 7.68243C22.7206 7.8072 22.3815 7.96763 22.0603 8.11022ZM20.1862 9.1797C20.2933 9.05493 20.2933 9.0371 20.2933 8.94798C20.2576 8.94798 20.2041 8.96581 20.1684 8.98363C16.4024 10.7839 13.6181 12.5664 11.9761 14.1706L10.9409 15.2223C12.6186 13.4933 15.6171 11.5326 19.7222 9.55402C19.972 9.42925 20.1327 9.251 20.1862 9.1797ZM23.1133 7.36159C23.149 7.32594 23.1847 7.27246 23.2025 7.21899C23.2025 7.20116 23.1847 7.18334 23.1668 7.16551C23.1179 7.17099 23.0698 7.18298 23.024 7.20116C18.6334 9.1084 15.3494 11.0513 13.4218 12.7803L12.3687 13.7785C14.332 11.9069 17.8659 9.78574 22.6849 7.68243C22.917 7.57548 23.0776 7.41506 23.1133 7.36159ZM33.1261 3.56493C32.787 3.67188 32.43 3.761 32.0909 3.86795C32.0373 3.88578 31.8589 3.95708 31.8053 4.06402C31.7518 4.15315 31.8053 4.29574 32.1444 4.22445L33.2153 3.9036C33.4652 3.81448 33.5009 3.70753 33.5009 3.67188C33.5009 3.67188 33.5009 3.47581 33.1261 3.56493ZM33.8578 3.08367C33.8578 3.03019 33.7686 2.94107 33.483 2.99454C31.5554 3.56493 29.6278 4.1888 27.736 4.88396C27.5753 4.95526 27.3611 5.08003 27.3254 5.24045C27.379 5.29393 27.3968 5.31175 27.5575 5.25828C29.5386 4.52746 31.5733 3.86795 33.608 3.27974C33.84 3.20844 33.8578 3.11932 33.8578 3.08367ZM20.6146 8.07457C20.7752 7.93198 20.7752 7.89633 20.7752 7.86068C20.7395 7.86068 20.7038 7.8785 20.686 7.8785C18.2229 9.1084 16.2953 10.3383 14.9389 11.4613L13.8501 12.406C15.278 11.1582 17.4019 9.78574 20.1505 8.41324C20.3647 8.28847 20.5432 8.12805 20.6146 8.07457ZM17.741 9.37577C18.0087 9.16188 18.0266 9.14405 18.0444 9.1084L18.0266 9.12623C17.6696 9.35795 17.3662 9.57185 17.0806 9.76792C16.5809 10.1422 15.9205 10.677 15.4208 11.0513C15.9562 10.6235 16.563 10.1779 17.2591 9.73227C17.3127 9.69662 17.4376 9.62532 17.741 9.37577ZM18.5085 8.75191C18.5263 8.73409 18.562 8.71626 18.5799 8.69844L17.741 9.28665C17.8481 9.21535 17.9373 9.14405 18.0444 9.07275C18.1337 9.01928 18.1872 8.98363 18.5085 8.75191ZM19.1153 8.62714C19.3295 8.50237 19.5615 8.37759 19.7935 8.25282C19.972 8.14587 20.1505 8.00327 20.2397 7.93198C20.4361 7.77155 20.4539 7.7359 20.4539 7.71808C20.4361 7.71808 20.4361 7.71808 20.3825 7.7359C20.1684 7.86068 19.9363 7.96762 19.74 8.0924C19.508 8.23499 19.0796 8.55584 19.0439 8.64496C19.0796 8.64496 19.0975 8.62714 19.1153 8.62714ZM24.4162 6.18516C23.6666 6.48818 22.9705 6.80902 22.2923 7.11204C22.0424 7.23681 21.7211 7.50418 21.7211 7.61113C21.739 7.62896 21.7568 7.62896 21.8461 7.59331C22.56 7.27246 23.3096 6.93379 24.0771 6.61295C24.2556 6.54165 24.4341 6.47035 24.6125 6.38123C24.8446 6.27428 24.9873 6.13168 25.023 6.07821C25.0409 6.06039 25.0766 6.02474 25.0766 5.98909C25.0944 5.93561 25.1123 5.86431 24.916 5.93561C24.7553 6.04256 24.5768 6.11386 24.4162 6.18516ZM24.7018 5.61477C24.8981 5.52565 25.0409 5.4187 25.1123 5.36522C25.2015 5.29393 25.2194 5.25828 25.2194 5.24045C25.2194 5.24045 25.2194 5.22263 25.2015 5.22263C25.1658 5.22263 25.148 5.22263 25.0944 5.25828C24.0592 5.70389 23.1133 6.13168 22.2387 6.5773C22.1852 6.61295 21.6319 6.93379 21.5962 7.05857C21.6141 7.05857 21.6319 7.04074 21.6497 7.04074C22.5957 6.55948 23.5952 6.07821 24.7018 5.61477ZM24.8803 5.2761C25.0587 5.18698 25.2015 5.09785 25.2729 5.04438C25.3978 4.95526 25.3978 4.93743 25.3978 4.91961C25.38 4.91961 25.3622 4.91961 25.3086 4.93743C24.8803 5.1335 24.4341 5.3474 24.0057 5.54347C23.8451 5.61477 23.4524 5.84649 23.3989 5.95344C23.4167 5.95344 23.4167 5.95344 23.4703 5.93561C23.9165 5.70389 24.3984 5.49 24.8803 5.2761ZM29.1995 4.2601C29.8242 4.0462 30.4489 3.8323 31.0914 3.63623C31.3234 3.54711 31.377 3.45798 31.377 3.42234C31.377 3.42234 31.4305 3.26191 31.1092 3.35104C30.5024 3.54711 29.9134 3.74318 29.3244 3.93925C29.0389 4.0462 28.9853 4.17097 28.9675 4.1888C28.9675 4.22445 28.9318 4.33139 29.1995 4.2601ZM31.1806 2.92324C31.7161 2.745 32.2694 2.58458 32.8048 2.42415C33.0011 2.35286 33.019 2.29938 33.0368 2.28156C33.0368 2.28156 33.0547 2.19243 32.7691 2.26373C32.2694 2.40633 31.7518 2.56675 31.252 2.72717C31.02 2.8163 30.9843 2.8876 30.9843 2.90542C30.9665 2.92324 30.9486 2.99454 31.1806 2.92324ZM30.1633 3.03019C30.3418 2.95889 30.4132 2.90542 30.4489 2.8876C30.4846 2.86977 30.4846 2.85195 30.4846 2.83412C30.4667 2.8163 30.431 2.8163 30.3239 2.85195C30.0919 2.92324 29.8599 3.01237 29.6457 3.08367C29.4672 3.15497 29.2887 3.24409 29.3066 3.29756C29.3244 3.31539 29.3601 3.29756 29.4494 3.27974C29.6814 3.19061 29.9134 3.11932 30.1633 3.03019ZM46.7442 8.66279L48.3148 8.34194C48.6361 8.25282 48.6361 8.0924 48.6004 7.98545C48.6004 7.98545 48.4219 7.61113 47.8329 7.68243C47.3153 7.78938 46.8156 7.8785 46.298 7.98545C46.1909 8.0211 46.0838 8.03892 46.0124 8.14587C45.8875 8.35977 46.1552 8.73409 46.7442 8.66279ZM47.9222 5.73954C46.9762 5.91779 46.0303 6.09604 45.0665 6.30993C44.9772 6.34558 44.8701 6.36341 44.8166 6.47035C44.7095 6.6486 44.9772 6.98727 45.5127 6.89814C46.4943 6.68425 47.4759 6.506 48.4397 6.32776C48.7432 6.23863 48.7253 6.09604 48.6718 6.00691C48.6718 5.98909 48.4754 5.66824 47.9222 5.73954ZM45.352 7.89633C46.3872 7.68243 47.4046 7.46853 48.4041 7.27246C48.7253 7.18334 48.7075 7.02292 48.6539 6.93379C48.6182 6.8625 48.3862 6.59513 47.9043 6.6486C46.9227 6.82685 45.9232 7.04074 44.9237 7.25464C44.8344 7.29029 44.7273 7.30811 44.656 7.41506C44.5132 7.64678 44.7987 7.96762 45.352 7.89633ZM49.9925 4.86613C49.939 4.79483 49.6891 4.58094 49.2429 4.61659C47.0297 4.97308 44.7095 5.43652 42.3535 5.97126C42.2643 6.00691 42.1572 6.02474 42.1037 6.13168C41.9787 6.30993 42.2108 6.63077 42.7462 6.54165C45.1735 5.98909 47.5473 5.52565 49.8319 5.15133C50.0818 5.08003 50.0461 4.95526 49.9925 4.86613ZM42.889 5.63259C45.2092 5.11568 47.4938 4.68789 49.6713 4.34922C49.9568 4.27792 49.8854 4.15315 49.8319 4.09967C49.7295 4.01191 49.6101 3.94607 49.4811 3.90622C49.3522 3.86636 49.2165 3.85334 49.0823 3.86795C46.9584 4.20662 44.7452 4.61659 42.4785 5.11568C42.3892 5.1335 42.2822 5.16915 42.2286 5.25828C42.1394 5.4187 42.3714 5.70389 42.889 5.63259ZM42.3535 4.42052C42.2643 4.58094 42.4963 4.83048 42.9961 4.75919C45.6733 4.1888 48.2613 3.72535 50.7065 3.38669C50.9563 3.33321 50.8849 3.22626 50.8314 3.15497C50.6089 2.99527 50.337 2.91949 50.0639 2.94107C47.6901 3.26191 45.1735 3.70753 42.5856 4.2601C42.4963 4.31357 42.4071 4.34922 42.3535 4.42052ZM51.5453 2.6024C51.581 2.6024 51.6524 2.56675 51.6881 2.54893C51.6881 2.4598 51.6881 2.4598 51.6167 2.40633C51.3868 2.26462 51.1191 2.19622 50.8492 2.21026C48.6539 2.4598 46.298 2.8163 43.8528 3.29756C43.7814 3.31539 43.6922 3.35104 43.6565 3.40451C43.5851 3.56493 43.8528 3.79665 44.3347 3.72535C46.8513 3.24409 49.2786 2.85195 51.5453 2.6024ZM40.069 3.49363C39.9084 3.63623 40.1225 3.88578 40.6223 3.81448C44.7452 2.86977 48.6896 2.22808 52.2235 1.92506L52.2771 1.87159C52.27 1.84878 52.2584 1.8276 52.2431 1.80925C52.2278 1.7909 52.209 1.77574 52.1879 1.76464C51.9475 1.65385 51.6851 1.599 51.4204 1.60422C48.0649 1.88941 44.2454 2.51328 40.2653 3.42234C40.1944 3.42704 40.1263 3.45177 40.069 3.49363ZM41.4433 2.54893C41.3005 2.58458 41.2827 2.6024 41.247 2.69152C41.3362 2.97672 41.8716 2.90542 41.8716 2.90542C44.5846 2.33503 47.1904 1.90724 49.5999 1.63987C49.6356 1.63987 49.6891 1.60422 49.7248 1.5864C49.707 1.5151 49.707 1.5151 49.6356 1.47945C49.3995 1.37659 49.1434 1.32787 48.8859 1.33685C46.5657 1.5864 44.0491 1.99636 41.4433 2.54893ZM40.7115 2.5311C43.2995 1.97854 45.7982 1.55075 48.1006 1.26555C48.1363 1.26555 48.1899 1.24773 48.2077 1.2299C48.1899 1.17643 48.1899 1.17643 48.1185 1.14078C48.1185 1.14078 47.7972 0.998181 47.4046 1.03383C45.1914 1.3012 42.7819 1.71117 40.301 2.24591C40.1582 2.28156 40.1582 2.29938 40.1047 2.37068C40.1939 2.56675 40.5687 2.56675 40.7115 2.5311ZM40.2832 1.76464C40.1761 1.78247 40.1761 1.78247 40.1047 1.83594V1.88941C40.2475 2.03201 40.4973 2.03201 40.6937 2.01419C43.8171 1.35467 46.7977 0.909058 49.4214 0.712987C49.4392 0.712987 49.4749 0.695162 49.5106 0.677337C49.4571 0.641688 49.4571 0.623863 49.3679 0.606039C49.3679 0.606039 48.993 0.499091 48.6361 0.516915C46.1016 0.712987 43.2638 1.14078 40.2832 1.76464ZM39.0695 1.65769C39.1409 1.81812 39.4979 1.80029 39.6228 1.78247C42.9068 1.06948 46.0124 0.606039 48.7253 0.427792C48.7432 0.427792 48.7789 0.409967 48.7967 0.409967C48.7432 0.374318 48.7432 0.374318 48.6361 0.356493C48.5647 0.338669 48.1899 0.26737 47.9043 0.285195C45.3163 0.463441 42.3535 0.909058 39.2301 1.5864C39.1052 1.5864 39.1052 1.60422 39.0695 1.65769ZM45.6733 0.213896C43.6743 0.409967 41.4433 0.748636 39.1409 1.2299C39.0338 1.26555 39.0338 1.26555 38.9981 1.31903C39.0873 1.4438 39.3908 1.42597 39.5514 1.40815C41.9966 0.891233 44.3168 0.53474 46.4408 0.338669C46.4586 0.338669 46.4943 0.320844 46.5122 0.320844C46.4586 0.285195 46.4586 0.285195 46.3694 0.26737C46.3694 0.249545 46.0124 0.178247 45.6733 0.213896ZM38.07 1.17643C38.07 1.19425 38.0522 1.21208 38.0522 1.2299C38.1949 1.31903 38.427 1.28338 38.5519 1.26555C41.3897 0.659513 44.1027 0.249545 46.4586 0.0891233C46.4765 0.0891233 46.4943 0.0712987 46.5122 0.0712987C46.4408 0.053474 46.4408 0.053474 46.3337 0.053474C46.2087 0.0356493 45.8875 0.0178247 45.6197 0.0356493C43.4066 0.178247 40.8543 0.570389 38.1592 1.14078C38.1414 1.14078 38.0878 1.1586 38.07 1.17643ZM36.0532 1.55075C39.2658 0.766461 42.3535 0.231721 45.0486 0.0178247C44.9772 0 44.9772 0 44.8701 0C44.7273 0 44.4239 0 44.1919 0.0178247C41.711 0.213896 38.8196 0.695162 35.7676 1.46162C35.7296 1.4817 35.6985 1.51276 35.6784 1.55075C35.7141 1.56857 35.8211 1.60422 36.0532 1.55075ZM35.6962 1.33685C35.7676 1.35467 35.8568 1.3725 36.071 1.31903C38.9981 0.623863 41.7824 0.160422 44.1919 0H44.0134C43.8528 0 43.71 0.0178247 43.5494 0.0178247L43.3352 0.0356493C41.122 0.178247 38.534 0.606039 35.8211 1.26555C35.7676 1.28338 35.7141 1.3012 35.6962 1.33685ZM42.6213 0.0891233H42.5499C41.8538 0.160422 40.9435 0.249545 40.2475 0.338669C39.6763 0.409967 39.0695 0.516915 38.4627 0.623863C38.6947 0.588214 38.9446 0.53474 39.1766 0.499091C38.659 0.588214 37.9808 0.695162 37.481 0.784285C37.0705 0.855584 36.5172 0.980357 36.1246 1.06948C36.2673 1.05166 36.3923 1.01601 36.5351 0.998181C36.9099 0.909058 37.2847 0.855584 37.6595 0.784285C37.0348 0.909058 36.4101 1.03383 35.7854 1.17643C35.7497 1.17643 35.7319 1.19425 35.6962 1.21208C35.7497 1.21208 35.8568 1.21208 36.0532 1.17643C38.3913 0.623863 40.658 0.249545 42.6213 0.0891233ZM34.7681 1.40815C34.8573 1.39032 34.8573 1.39032 34.8573 1.3725C34.8216 1.3725 34.6432 1.42597 34.5718 1.4438C34.0363 1.5864 33.483 1.72899 32.9476 1.88941C32.8048 1.92506 32.787 1.94289 32.787 1.94289C32.8405 1.94289 32.9297 1.90724 32.9833 1.90724C33.5901 1.71117 34.1791 1.55075 34.7681 1.40815ZM30.3239 2.78065C30.3418 2.76282 30.3418 2.76282 30.3596 2.76282C30.3596 2.745 30.3596 2.745 30.2347 2.78065C30.0562 2.83412 29.9134 2.92324 29.9134 2.94107C29.8956 2.97672 30.199 2.85195 30.3239 2.78065ZM34.197 1.60422C34.1791 1.5864 34.072 1.60422 33.9292 1.63987C33.8222 1.67552 33.7865 1.69334 33.7865 1.69334C33.7686 1.72899 33.9292 1.71117 34.072 1.67552C34.1613 1.63987 34.2148 1.62204 34.197 1.60422ZM27.736 4.61659C27.7538 4.56311 27.7538 4.50964 27.5575 4.56311C27.3254 4.65224 27.1291 4.83048 27.147 4.90178C27.147 5.02656 27.5932 4.84831 27.7181 4.65224C27.7181 4.65224 27.736 4.63441 27.736 4.61659ZM32.6799 3.03019C32.8048 3.13714 33.251 2.97672 33.2332 2.83412C33.2332 2.78065 33.1261 2.72717 32.9119 2.78065C32.6977 2.86977 32.6085 2.97672 32.6799 3.03019ZM24.9873 6.38123C24.7018 6.506 24.4876 6.73772 24.5054 6.82685C24.5411 6.96944 24.9873 6.73772 25.148 6.506C25.1658 6.48818 25.1658 6.47035 25.1658 6.45253C25.1837 6.4347 25.2372 6.27428 24.9873 6.38123ZM28.2357 5.3474C28.2892 5.24045 28.2178 5.16915 27.9858 5.24045C27.7181 5.3474 27.5575 5.54347 27.5932 5.63259C27.6467 5.77519 28.1465 5.5613 28.2357 5.3474ZM30.3418 4.63441C30.3596 4.52746 30.2704 4.47399 30.0384 4.54529C29.7706 4.63441 29.6278 4.81266 29.6992 4.90178C29.8063 5.04438 30.2882 4.83048 30.3418 4.63441ZM24.916 7.78938C25.0052 7.9498 25.5049 7.70025 25.6299 7.43289C25.6834 7.30811 25.6477 7.18334 25.38 7.29029C25.0766 7.41506 24.8624 7.68243 24.916 7.78938ZM31.4841 5.40087C31.4841 5.2761 31.3591 5.2048 31.0914 5.2761C30.788 5.38305 30.663 5.59694 30.7701 5.68607C30.9308 5.86431 31.4662 5.65042 31.4841 5.40087ZM32.9476 6.34558C32.9476 6.23863 32.787 6.11386 32.4835 6.18516C32.1623 6.29211 32.0373 6.54165 32.1801 6.6486C32.3943 6.84467 32.9654 6.61295 32.9476 6.34558ZM34.8216 5.88214C35.0894 6.04256 35.607 5.82867 35.5534 5.57912C35.5356 5.47217 35.3571 5.3474 35.0537 5.43652C34.6967 5.54347 34.661 5.79302 34.8216 5.88214ZM29.1638 11.0513C29.1816 10.8909 29.021 10.7304 28.6641 10.8374C28.2714 10.98 28.1286 11.3008 28.2535 11.4613C28.4856 11.7465 29.146 11.4256 29.1638 11.0513ZM36.1781 8.48454C35.7676 8.60931 35.6962 8.91233 35.9104 9.07275C36.2316 9.28665 36.8385 9.01928 36.7671 8.69844C36.7314 8.55584 36.5351 8.39542 36.1781 8.48454ZM72.1242 7.14769C72.1599 7.20116 73.1237 7.84285 73.1772 7.8072C73.1594 7.77155 72.9809 7.66461 72.8738 7.59331C72.6775 7.45071 72.3027 7.23681 72.142 7.14769C72.142 7.12987 72.142 7.12987 72.1242 7.14769ZM66.3949 7.66461C66.3592 7.66461 66.2878 7.66461 66.27 7.70026C66.1272 7.8785 66.8054 8.35977 67.1803 8.35977C67.3766 8.35977 67.3944 8.23499 67.1981 8.05675C66.9818 7.84007 66.699 7.70201 66.3949 7.66461ZM71.5709 8.37759C71.3924 8.23499 71.0354 7.98545 70.7856 7.9498C70.7499 7.9498 70.6963 7.9498 70.6963 7.96762C70.6249 8.11022 71.4638 8.68061 71.7137 8.64496C71.8029 8.64496 71.7494 8.53801 71.5709 8.37759ZM74.141 10.1244C74.1053 10.1244 74.0696 10.1244 74.0518 10.1422C73.909 10.267 74.6943 10.9087 74.9977 10.9265C75.1227 10.9265 75.087 10.8017 74.9085 10.6235C74.7479 10.4453 74.3909 10.1957 74.141 10.1244ZM18.6691 25.008C18.9368 25.3467 19.6329 24.9011 19.6686 24.3841C19.6865 24.1524 19.5258 23.9029 19.1153 24.0633C18.6691 24.2772 18.4906 24.7763 18.6691 25.008ZM69.2506 11.8891C69.1971 11.8891 69.1614 11.8891 69.1078 11.9247C68.8401 12.1029 69.3577 12.6555 69.8396 12.7446C70.1252 12.7981 70.2323 12.6199 70.0538 12.3525C69.9289 12.1742 69.5897 11.9069 69.2506 11.8891ZM72.6775 12.406C72.5347 12.2277 72.1956 11.9425 71.8743 11.9247C71.8208 11.9247 71.7851 11.9247 71.7494 11.9604C71.5173 12.1208 72.1242 12.7268 72.5525 12.7803C72.8024 12.7981 72.856 12.6377 72.6775 12.406ZM36.0353 20.7657C35.4999 20.9618 35.4106 21.4609 35.7319 21.6926C36.1603 21.9778 36.8385 21.6035 36.7671 21.1222C36.7492 20.8905 36.4994 20.641 36.0353 20.7657ZM39.5514 23.3681C39.5157 23.1542 39.2658 22.8512 38.7661 22.976C38.2306 23.1542 38.1414 23.7068 38.4984 23.9385C38.9446 24.2594 39.6406 23.885 39.5514 23.3681ZM86.0636 21.3718C86.0457 21.3718 86.0278 21.3539 86.01 21.3718C85.8494 21.4431 86.4741 22.4056 86.7239 22.4591C86.8132 22.4769 86.7953 22.3165 86.6525 22.0669C86.5276 21.8352 86.2599 21.4609 86.0636 21.3718ZM87.3308 22.0848C87.2415 22.1382 87.9019 23.1721 88.0447 23.1899C88.0982 23.1899 88.0268 23.0473 87.9019 22.8156C87.777 22.5838 87.5271 22.2095 87.3665 22.1026C87.3486 22.0848 87.3308 22.0848 87.3308 22.0848ZM86.5811 24.9189C86.7596 24.9902 86.7953 24.8119 86.6525 24.5089C86.5454 24.2594 86.2956 23.885 86.0457 23.7959C86.0278 23.7959 85.9921 23.7781 85.9743 23.7959C85.7601 23.885 86.2242 24.7585 86.5811 24.9189ZM88.9728 25.5071C88.8657 25.2575 88.6337 24.8654 88.4552 24.7585C88.4373 24.7585 88.4195 24.7406 88.4016 24.7406C88.2589 24.8119 88.8122 25.8458 89.0263 25.8992C89.1334 25.9349 89.0977 25.7745 88.9728 25.5071ZM26.9328 41.8345C26.8792 41.5671 26.6115 41.2106 26.1118 41.3889C25.5406 41.6562 25.5049 42.3514 25.9333 42.6188C26.4152 42.9218 27.0399 42.4405 26.9328 41.8345ZM34.0542 43.0822C34.0006 42.8148 33.7151 42.4405 33.1975 42.6009C32.6085 42.8505 32.5906 43.5457 33.019 43.813C33.5366 44.1339 34.1791 43.6704 34.0542 43.0822ZM1.32076 68.2685V68.2863C1.3743 68.5002 1.80266 69.4627 1.8562 69.4805C1.8562 69.4271 1.69557 69.0349 1.57063 68.7676C1.51709 68.6606 1.35646 68.2863 1.32076 68.2685ZM36.3566 45.3994C35.7676 45.6311 35.7497 46.3441 36.196 46.6115C36.6957 46.9145 37.3382 46.4511 37.2133 45.8807C37.195 45.7893 37.1571 45.7029 37.1023 45.6274C37.0475 45.552 36.977 45.4893 36.8956 45.4436C36.8143 45.3979 36.724 45.3703 36.6309 45.3626C36.5379 45.355 36.4443 45.3676 36.3566 45.3994ZM41.3184 44.5438C41.2993 44.4524 41.2612 44.366 41.2066 44.2902C41.1519 44.2144 41.082 44.151 41.0012 44.1039C40.9204 44.0569 40.8307 44.0273 40.7377 44.0171C40.6448 44.0069 40.5507 44.0163 40.4616 44.0447C39.8727 44.2586 39.8548 44.9716 40.2832 45.239C40.7829 45.5598 41.4254 45.1142 41.3184 44.5438ZM90.5434 70.9778C90.472 71.0135 90.0258 71.8512 89.9544 72.0651C89.9009 72.3503 89.7938 72.6533 89.6332 72.9564V72.9742C89.651 72.9563 89.6867 72.9029 89.7938 72.689C89.9009 72.4929 90.1151 72.1008 90.2043 71.9047C90.3649 71.6017 90.472 71.2808 90.5434 70.9778ZM88.241 74.5606C88.2232 74.8279 88.1696 75.0953 88.0625 75.3627V75.3805C88.0804 75.3805 88.0982 75.3627 88.2767 75.0953C88.3481 74.9884 88.6337 74.5427 88.7229 74.3467C88.83 74.0615 88.8836 73.7763 88.9014 73.5267V73.5089C88.7943 73.5446 88.2946 74.3645 88.241 74.5606ZM91.1681 69.9975L91.6857 68.8567L91.7392 68.7497C91.7928 68.6428 91.8285 68.518 91.8642 68.4111V68.3932C91.7928 68.518 91.4358 69.3023 91.3644 69.5162C91.3109 69.6766 91.2573 69.837 91.1681 69.9975ZM91.2395 69.6944C91.186 69.7123 90.7755 70.5678 90.6862 70.7996C90.6505 70.96 90.597 71.1026 90.5256 71.263V71.2808C90.5434 71.263 90.5613 71.2095 90.6862 70.9778C90.7755 70.7996 90.9718 70.3896 91.0789 70.1757C91.1503 70.0153 91.2038 69.8549 91.2395 69.6944C91.2395 69.7123 91.2395 69.7123 91.2395 69.6944ZM89.6689 72.689C89.6689 72.689 89.651 72.689 89.6689 72.689C89.5796 72.7425 89.062 73.6337 89.0442 73.7585C89.0977 73.7228 89.2227 73.5089 89.2762 73.4198C89.4368 73.1702 89.6153 72.8138 89.6689 72.689C89.6689 72.689 89.6689 72.7068 89.6689 72.689ZM87.2415 76.1826C87.2951 76.1826 87.4914 75.8974 87.5271 75.8439C87.7056 75.5944 87.9019 75.2736 87.9376 75.1666V75.1488C87.8484 75.1666 87.2058 76.1291 87.2415 76.1826ZM58.6489 96.7879L58.7916 96.7523C58.7559 96.7523 58.7203 96.7701 58.6489 96.7879C58.6667 96.7879 58.6667 96.7879 58.6489 96.7879ZM53.4908 97.7861H53.5265C53.7763 97.7505 54.169 97.6792 54.1868 97.6613C54.1511 97.6613 54.0262 97.6792 53.7228 97.7505C53.6514 97.7683 53.5622 97.7683 53.4908 97.7861ZM59.8447 90.9236C59.6841 90.9771 59.7197 91.3871 59.8447 91.494C59.9339 91.5831 60.0053 91.4049 60.0053 91.2088C59.9875 91.0484 59.9339 90.9058 59.8447 90.9236ZM57.7743 96.5562C57.7922 96.5562 57.7922 96.5562 57.7743 96.5562C57.9171 96.5206 58.2741 96.3067 58.2562 96.271C58.2205 96.2532 58.0063 96.3958 57.9706 96.4136C57.8457 96.5027 57.7743 96.5384 57.7743 96.5562ZM30.8951 2.51328C30.8594 2.51328 30.8237 2.5311 30.788 2.54893C30.6095 2.6024 30.5203 2.63805 30.5024 2.65587C30.5381 2.65587 30.7523 2.58458 30.8772 2.5311C30.8772 2.51328 30.8772 2.51328 30.8951 2.51328ZM32.0195 2.15678C32.0016 2.15678 31.966 2.17461 31.8767 2.19243C31.6982 2.24591 31.6625 2.26373 31.6447 2.28156C31.6804 2.28156 31.9481 2.19243 32.0195 2.15678C32.0195 2.15678 32.0016 2.15678 32.0195 2.15678ZM24.9695 5.00873C25.1123 4.91961 25.1301 4.90178 25.1301 4.90178C25.1123 4.90178 25.0944 4.91961 25.0766 4.91961C24.8624 5.02656 24.5054 5.22263 24.4697 5.2761C24.5233 5.2761 24.7732 5.1335 24.9695 5.00873ZM31.8767 2.40633C31.8946 2.37068 31.841 2.35286 31.6804 2.40633C31.5197 2.4598 31.4305 2.5311 31.4305 2.54893C31.4484 2.62023 31.841 2.49545 31.8767 2.40633ZM26.7543 4.68789C26.79 4.65224 26.79 4.63441 26.8078 4.63441C26.8257 4.61659 26.8435 4.56311 26.6651 4.61659C26.433 4.72354 26.201 4.90178 26.201 4.95526C26.2367 5.02656 26.5937 4.84831 26.7543 4.68789ZM30.4489 3.38669C30.5024 3.49363 30.9308 3.33321 30.9843 3.19061C31.0022 3.11932 30.9308 3.08367 30.7523 3.13714C30.556 3.20844 30.431 3.33321 30.4489 3.38669ZM33.5544 2.40633C33.5544 2.37068 33.4473 2.31721 33.251 2.37068C33.0547 2.44198 32.9833 2.5311 33.0368 2.56675C33.1618 2.65587 33.5901 2.5311 33.5544 2.40633ZM24.6661 7.29029C24.7196 7.45071 25.2015 7.20116 25.3443 6.95162L25.3622 6.93379C25.3978 6.8625 25.3978 6.73772 25.1301 6.82685C24.8446 6.93379 24.6304 7.18334 24.6661 7.29029ZM26.8435 6.4347C26.9149 6.61295 27.4325 6.38123 27.5218 6.13168C27.5753 6.00691 27.4861 5.93561 27.2541 6.00691C26.9863 6.11386 26.8078 6.32776 26.8435 6.4347ZM27.9144 10.1422C27.5575 10.2848 27.379 10.5879 27.5039 10.7483C27.6824 10.9978 28.3428 10.6948 28.3785 10.3383C28.3963 10.1957 28.2535 10.0353 27.9144 10.1422ZM39.4265 6.68425C39.1052 6.7912 39.0516 7.09422 39.3372 7.21899C39.712 7.39724 40.2118 7.16551 40.1047 6.88032C40.0511 6.75555 39.837 6.59513 39.48 6.68425C39.4622 6.66642 39.4443 6.66642 39.4265 6.68425ZM37.8915 9.3936C37.8558 9.251 37.6416 9.07275 37.2668 9.16188C36.8563 9.28665 36.7849 9.62532 37.017 9.78574C37.3561 9.99964 37.9629 9.73227 37.8915 9.3936ZM74.3373 9.92834C74.4266 9.92834 74.3552 9.80357 74.1767 9.64314C73.9982 9.48272 73.6413 9.23318 73.4092 9.1797C73.3736 9.1797 73.3557 9.16188 73.3379 9.1797C73.2129 9.28665 74.1053 9.94616 74.3373 9.92834ZM19.9363 22.3165C19.4544 22.5482 19.3295 23.0295 19.4901 23.2434C19.74 23.5642 20.4361 23.1364 20.4896 22.6373C20.4896 22.4056 20.3468 22.1561 19.9363 22.3165ZM67.5908 10.7661C67.5372 10.7661 67.5015 10.7661 67.448 10.8017C67.1981 10.9622 67.7157 11.4969 68.1976 11.5682C68.4832 11.6039 68.5903 11.4434 68.4118 11.1939C68.269 11.0335 67.9299 10.7661 67.5908 10.7661ZM70.2144 10.7661C70.1609 10.7661 70.1252 10.7661 70.0895 10.8017C69.8575 10.9622 70.4643 11.5326 70.9105 11.586C71.1425 11.6217 71.1961 11.4613 71.0176 11.2295C70.8748 11.0513 70.5179 10.7839 70.2144 10.7661ZM42.0323 18.3951C42.4785 18.6802 43.1389 18.3594 43.0318 17.896C42.9782 17.6821 42.7105 17.4325 42.2643 17.5395C41.7646 17.6821 41.6932 18.1633 42.0323 18.3951ZM42.0501 21.1044C41.9966 20.8727 41.7289 20.6053 41.2648 20.7123C40.7294 20.8905 40.6758 21.4074 41.0149 21.6391C41.4611 21.96 42.1572 21.5857 42.0501 21.1044ZM40.9971 24.5446C40.9614 24.3128 40.6758 24.0276 40.1939 24.1346C39.6406 24.3307 39.5692 24.8654 39.9262 25.115C40.3724 25.4536 41.0863 25.0615 40.9971 24.5446ZM83.2971 22.3343C83.19 22.1026 82.9044 21.7283 82.6189 21.6748H82.5296C82.2619 21.7817 82.6903 22.5838 83.1186 22.7443C83.3506 22.8512 83.4399 22.6551 83.2971 22.3343ZM87.9197 24.1346C88.009 24.1524 87.9733 23.992 87.8484 23.7425C87.7234 23.5107 87.4735 23.1186 87.2951 23.0116C87.2772 23.0116 87.2594 22.9938 87.2415 23.0116C87.0987 23.0829 87.6877 24.0811 87.9197 24.1346ZM79.6561 25.008C79.5668 24.7585 79.2991 24.3841 78.9422 24.3485C78.9065 24.3485 78.8708 24.3485 78.8172 24.3663C78.4959 24.5267 78.7637 25.2397 79.2277 25.4536C79.5668 25.6319 79.781 25.4001 79.6561 25.008ZM5.87203 49.8021C5.55076 50.0695 5.6043 50.8359 5.88987 51.0498C6.19329 51.2816 6.49671 50.8003 6.38962 50.2477C6.33608 49.9804 6.13975 49.6417 5.87203 49.8021ZM28.4499 43.1892C28.4342 43.0989 28.3982 43.0135 28.3444 42.9393C28.2906 42.8652 28.2206 42.8043 28.1397 42.7613C28.0587 42.7183 27.969 42.6943 27.8774 42.6913C27.7858 42.6882 27.6947 42.7061 27.611 42.7435C27.022 43.0109 27.022 43.7061 27.4504 43.9734C27.9323 44.2765 28.557 43.7774 28.4499 43.1892ZM29.6278 41.9593C29.0389 42.2088 29.021 42.9218 29.4494 43.1892C29.9491 43.4922 30.5738 43.0109 30.4667 42.4227C30.4132 42.1553 30.1454 41.7988 29.6278 41.9593ZM0.696076 66.8603V66.8781C0.767468 67.0564 1.14228 68.0189 1.19582 68.108C1.17797 68.0546 1.03519 67.6981 0.910253 67.3772C0.731772 66.896 0.696076 66.8603 0.696076 66.8603ZM22.8813 48.697C22.3458 48.9644 22.3815 49.6773 22.792 49.9269C23.2739 50.2121 23.8451 49.713 23.7023 49.1426C23.6309 48.8396 23.3275 48.5187 22.8813 48.697ZM27.5753 47.4849C27.5039 47.1997 27.2005 46.8789 26.7365 47.0393C26.1653 47.3067 26.1653 48.0018 26.6115 48.2692C27.0934 48.5722 27.7003 48.0731 27.5753 47.4849ZM33.5901 45.1855C33.5366 44.9003 33.2332 44.5617 32.7334 44.7221C32.1444 44.9716 32.1444 45.6846 32.5728 45.9342C33.0725 46.2372 33.7151 45.7737 33.5901 45.1855ZM24.1128 52.155C24.0022 52.2105 23.9085 52.2945 23.8412 52.3983C23.774 52.502 23.7357 52.6218 23.7302 52.7453C23.7248 52.8688 23.7524 52.9915 23.8102 53.1008C23.868 53.2101 23.954 53.302 24.0592 53.367C24.5411 53.6344 25.1123 53.1531 24.9516 52.5828C24.8803 52.2976 24.559 51.9767 24.1128 52.155ZM38.7839 47.271C38.7651 47.1799 38.7269 47.0939 38.6719 47.0187C38.617 46.9436 38.5465 46.8811 38.4653 46.8355C38.3841 46.7899 38.2941 46.7622 38.2012 46.7543C38.1084 46.7464 38.015 46.7585 37.9272 46.7897C37.3382 47.0215 37.3382 47.7166 37.7666 47.984C38.2842 48.3048 38.9089 47.8414 38.7839 47.271ZM42.8711 45.952C42.8545 45.8593 42.8179 45.7713 42.7638 45.6941C42.7098 45.6169 42.6396 45.5523 42.5582 45.5049C42.4767 45.4574 42.3859 45.4282 42.292 45.4192C42.1981 45.4103 42.1034 45.4217 42.0144 45.4529C41.4254 45.6668 41.4076 46.3619 41.836 46.6471C42.3535 46.968 42.9961 46.5402 42.8711 45.952ZM60.0946 91.6722C59.9696 91.7257 59.9875 92.1 60.0589 92.207C60.1303 92.2783 60.2016 92.1357 60.2016 91.9574C60.2195 91.8148 60.1838 91.6544 60.0946 91.6722ZM56.9533 96.9305H56.9711C57.1318 96.8949 57.4887 96.7166 57.4887 96.681C57.4709 96.6632 57.1853 96.7879 57.1496 96.8058C56.9533 96.9127 56.9533 96.9305 56.9533 96.9305ZM59.4877 93.3121C59.3985 93.3478 59.577 93.7043 59.6305 93.7399C59.6662 93.7577 59.6484 93.633 59.6305 93.5438C59.6127 93.4191 59.5413 93.3121 59.4877 93.3121ZM28.7176 3.38669C28.8604 3.33321 28.9675 3.27974 29.021 3.24409C29.0924 3.20844 29.0924 3.19061 29.0924 3.19061C29.0746 3.19061 29.0567 3.19061 29.0032 3.20844C28.6105 3.35104 28.2 3.51146 27.8073 3.67188C27.6646 3.72535 27.4147 3.85013 27.3254 3.9036V3.92143C27.3433 3.92143 27.3611 3.92143 27.3968 3.9036C27.8609 3.70753 28.2892 3.54711 28.7176 3.38669ZM26.558 4.36704C27.022 4.17097 27.5039 3.99272 27.9858 3.81448C28.1465 3.74318 28.2714 3.67188 28.3249 3.63623L28.3963 3.56493C28.3785 3.56493 28.3606 3.56493 28.2892 3.58276C27.843 3.761 27.3968 3.92143 26.9506 4.09967C26.7722 4.17097 26.5223 4.31357 26.4509 4.38487V4.40269C26.5044 4.40269 26.5044 4.38487 26.558 4.36704ZM33.0725 1.99636C32.9119 2.04984 32.8762 2.08549 32.8762 2.10331C32.8762 2.12113 32.9119 2.15678 33.1261 2.10331C33.3759 2.03201 33.6258 1.96071 33.8578 1.88941C34.0363 1.83594 34.0363 1.80029 34.0363 1.78247C34.0363 1.78247 34.0185 1.72899 33.7508 1.78247C33.5187 1.87159 33.3046 1.92506 33.0725 1.99636ZM28.2892 3.99272C28.0037 4.09967 27.9144 4.24227 27.8966 4.2601C27.8787 4.29574 27.8787 4.34922 28.0751 4.27792C28.3606 4.17097 28.6462 4.06402 28.9318 3.9749C29.1459 3.88578 29.2352 3.79665 29.253 3.761C29.253 3.761 29.2709 3.74318 29.2709 3.72535C29.2887 3.68971 29.3244 3.61841 29.0924 3.68971C28.8425 3.79665 28.557 3.88578 28.2892 3.99272ZM5.58646 25.9884C9.04899 23.386 14.1892 20.5875 20.7752 17.8247C21.0786 17.6999 21.3642 17.5751 21.6676 17.4503C22.0424 17.2543 22.1495 17.0047 22.1673 16.9156C22.2209 16.7195 22.1316 16.47 21.7211 16.6126C21.4356 16.7374 21.1322 16.8621 20.8466 16.9691C14.4034 19.6606 9.35241 22.4234 5.90772 25.0258C5.90772 25.0258 5.35443 25.7032 5.51506 26.024C5.53291 26.0062 5.56861 25.9884 5.58646 25.9884ZM31.1628 11.7286C31.6982 11.5504 32.2158 11.39 32.7513 11.2295C33.1261 11.0869 33.1618 10.873 33.1796 10.8017C33.1796 10.8017 33.1796 10.3918 32.6085 10.5344C32.0909 10.6948 31.5733 10.8552 31.0557 11.0335C30.9665 11.0691 30.788 11.1404 30.6809 11.3187C30.5381 11.5326 30.6273 11.8712 31.1628 11.7286ZM0.232025 65.5056C0.0535443 64.9887 0.0178481 64.9352 0 64.8996V64.9174C0.0178481 65.0065 0.0535443 65.1135 0.0892405 65.2026L0.571139 66.5216C0.519089 66.4021 0.483082 66.2763 0.464051 66.1473C0.392658 65.9869 0.28557 65.6304 0.232025 65.5056ZM72.4811 7.84285C72.4811 7.84285 72.0171 7.48636 71.678 7.37941L71.4816 7.32594C70.732 7.14769 69.8932 6.98727 68.9829 6.89814C68.9651 6.89814 68.9115 6.89815 68.8937 6.91597C68.7866 7.00509 69.4113 7.46853 69.8575 7.55766C70.7856 7.66461 71.6423 7.8072 72.4098 8.00327L72.6061 8.05675H72.6775C72.6775 8.03892 72.6775 8.00327 72.4811 7.84285ZM73.5342 9.00146L73.7662 9.05493C73.9804 9.1084 74.1767 9.16188 74.373 9.21535H74.4266C74.4266 9.19753 74.4266 9.16188 74.2481 9.00146C74.2481 9.00146 73.7841 8.62714 73.4449 8.50237C73.1664 8.42686 72.8868 8.35556 72.6061 8.28847H72.5347C72.5347 8.41324 73.1772 8.87668 73.5342 9.00146ZM74.6943 11.1404C74.5694 11.2474 75.1227 11.8356 75.5867 11.9425C75.9258 11.996 76.2649 12.0495 76.5862 12.1208H76.6397C76.7468 12.1029 76.6576 11.9782 76.5505 11.8534C76.5505 11.8534 76.1579 11.4256 75.7652 11.3008C75.4439 11.2295 75.1227 11.1761 74.7657 11.1226C74.7657 11.1226 74.73 11.1226 74.6943 11.1404ZM83.4399 25.7745C83.8504 25.8279 84.2609 25.8814 84.6357 25.9349C84.832 25.9349 84.8856 25.7923 84.7963 25.5249C84.7606 25.4001 84.5286 24.8832 84.1359 24.7585L82.9401 24.598C82.9044 24.598 82.833 24.598 82.8152 24.6337C82.5653 24.8119 82.9044 25.6497 83.4399 25.7745ZM85.7066 22.3878C85.4032 22.2987 85.0998 22.1917 84.7606 22.1204C84.7249 22.1204 84.6892 22.1204 84.6714 22.1382C84.5108 22.263 84.9034 23.0473 85.3496 23.2255C85.6887 23.3147 85.9921 23.4038 86.2956 23.4929C86.4384 23.5107 86.4384 23.386 86.3313 23.1364C86.3313 23.1364 86.0635 22.5482 85.7066 22.3878ZM86.2599 25.2219C86.0992 25.2397 86.1706 25.5606 86.2599 25.721C86.4384 26.0775 86.6168 26.2914 86.831 26.3805C87.1701 26.4696 87.4914 26.5588 87.7948 26.6657C87.9376 26.6835 87.9554 26.5588 87.8662 26.2914C87.8662 26.2914 87.6342 25.6675 87.2772 25.5071C86.9738 25.4001 86.6525 25.311 86.3134 25.2219H86.2599ZM87.652 28.5195C87.5806 28.5016 87.4914 28.4838 87.4022 28.466C84.7071 27.8065 81.2446 27.5569 77.2109 27.6639C77.1573 27.6639 77.086 27.6817 77.0324 27.7174C76.7111 27.9491 76.961 28.8403 77.6214 28.8938C81.6551 28.7868 85.1533 29.0364 87.8305 29.6959L88.0804 29.7494C88.2946 29.7672 88.2589 29.4642 88.2232 29.3394C88.2053 29.1968 87.9911 28.6621 87.652 28.5195ZM91.3644 31.0684C91.3823 31.0684 91.3823 31.0684 91.4001 31.0862C91.418 31.0684 91.4894 31.0327 91.3823 30.6941C91.3823 30.6941 91.1681 30.0524 90.9361 29.8385C90.7219 29.7137 90.5077 29.5889 90.2757 29.4642C90.2579 29.4642 90.24 29.4463 90.24 29.4463C90.0972 29.4642 90.3292 30.4089 90.7219 30.6941C90.9361 30.801 91.1503 30.9436 91.3644 31.0684ZM93.4884 34.6155C92.6852 33.4569 91.061 32.53 88.5444 31.924C85.5103 31.1753 81.4587 30.9436 76.729 31.1753C76.6754 31.1932 76.5862 31.211 76.5505 31.2288C76.1935 31.4784 76.4077 32.3874 77.086 32.4409C81.7979 32.2092 85.8494 32.4409 88.8835 33.1895C91.4001 33.7956 93.0243 34.7224 93.8453 35.8632C93.8275 35.685 93.8275 35.685 93.7739 35.5246C93.7561 35.3463 93.6311 34.9007 93.4884 34.6155ZM89.0263 33.7064C85.8137 32.9222 81.4766 32.7083 76.4077 33.0113C76.3542 33.0291 76.2649 33.0469 76.2114 33.0648C75.8366 33.3143 76.0329 34.2412 76.729 34.2947C81.7979 33.9916 86.1171 34.2055 89.3298 34.9898C92.007 35.6493 93.6847 36.6475 94.4343 37.8952C94.4165 37.7348 94.4165 37.717 94.3808 37.5566C94.3451 37.3783 94.238 36.9327 94.113 36.6297C93.3813 35.3641 91.7036 34.366 89.0263 33.7064ZM89.6867 36.7545C92.5246 37.4496 94.238 38.5369 94.8984 39.8559C94.8805 39.7668 94.8805 39.6599 94.8627 39.5708C94.827 39.3925 94.7556 38.9469 94.6485 38.6439C94.006 37.2535 92.2925 36.1662 89.4368 35.4711C85.7244 34.562 80.4771 34.4194 74.3373 34.9542C74.2481 34.972 74.1232 35.0255 74.0696 35.0968C73.8019 35.3641 73.9447 36.2197 74.6408 36.2554C80.7448 35.7206 85.9743 35.8454 89.6867 36.7545ZM89.7759 37.2714C86.242 36.398 81.3338 36.2375 75.5867 36.6832C75.4975 36.701 75.4082 36.7188 75.319 36.8258C75.0513 37.111 75.1941 37.9487 75.8544 37.9844C81.5837 37.5387 86.4741 37.6992 89.9901 38.5726C92.9886 39.3034 94.7199 40.4798 95.2732 41.9058C95.2732 41.8167 95.2553 41.7097 95.2375 41.6206C95.2196 41.4423 95.1482 40.9967 95.059 40.6937C94.5235 39.1786 92.7923 38.0022 89.7759 37.2714ZM90.2222 40.3372C93.3634 41.1037 95.1125 42.3692 95.5587 43.92C95.5587 43.8308 95.5409 43.7239 95.5409 43.6526C95.523 43.4744 95.4695 43.0287 95.416 42.7257C94.9697 41.1037 93.2385 39.8381 90.0615 39.0717C86.367 38.1626 81.191 38.0378 75.1048 38.5547C75.0156 38.5726 74.8906 38.626 74.8371 38.6973C74.5515 38.9647 74.6765 39.8381 75.3547 39.8559C81.3873 39.3034 86.5454 39.446 90.2222 40.3372ZM90.2757 40.8541C87.1166 40.0877 82.8687 39.8738 77.8891 40.159C77.8177 40.1768 77.7106 40.1946 77.6214 40.2837C77.3537 40.5689 77.4429 41.4067 78.0854 41.4602C83.0294 41.175 87.2772 41.371 90.4006 42.1375C93.7025 42.9396 95.4338 44.2943 95.7551 46.0055C95.7551 45.8985 95.7551 45.7916 95.7372 45.6668C95.7194 45.4885 95.7015 45.0608 95.648 44.7399C95.3446 43.0109 93.5955 41.6562 90.2757 40.8541ZM90.5077 43.9378C93.9346 44.7756 95.6658 46.2194 95.8443 47.984V47.7166C95.8443 47.6275 95.8265 47.1284 95.8086 46.7897C95.6301 44.936 93.8989 43.4922 90.4363 42.6544C86.7953 41.7632 81.6908 41.6384 75.6938 42.1553C75.6046 42.1732 75.5153 42.191 75.4261 42.2979C75.1048 42.6188 75.2654 43.4387 75.8723 43.4565C81.8157 42.9218 86.9024 43.0466 90.5077 43.9378ZM94.1487 59.8196C94.0238 59.8731 93.7918 60.7999 93.8275 61.0495C93.881 61.1921 93.9167 61.3525 93.9524 61.4951V61.5129C93.9703 61.5129 94.006 61.4951 94.0952 61.1564C94.0952 61.1564 94.2737 60.5326 94.2737 60.283C94.2558 60.1404 94.2023 59.98 94.1487 59.8196ZM90.5256 44.4369C87.0987 43.5991 82.3333 43.4387 76.7468 43.8665C76.6576 43.8843 76.5684 43.9021 76.4791 44.0091C76.1578 44.3299 76.2828 45.1499 76.8896 45.1855C82.4225 44.7577 87.1523 44.9182 90.5613 45.7559C94.1309 46.6293 95.8265 48.1444 95.8443 50.0873V48.8218C95.8265 46.8432 94.113 45.3103 90.5256 44.4369ZM90.5613 46.2194C87.6699 45.5064 83.7968 45.2925 79.2991 45.5064C79.2277 45.5242 79.1206 45.542 79.0314 45.6311C78.728 45.952 78.8172 46.7541 79.3884 46.8076C83.8504 46.5937 87.6699 46.8076 90.5434 47.5027C94.2201 48.394 95.88 49.9982 95.7551 52.0302L95.8265 50.6755C95.8979 48.6792 94.2023 47.1106 90.5613 46.2194ZM84.4215 48.5722C84.7249 48.5366 84.7963 48.2335 84.832 48.0731C84.832 48.0731 84.9034 47.378 84.4215 47.2888C83.0829 47.2354 81.6729 47.2532 80.1737 47.3067C80.1023 47.3245 80.013 47.3423 79.9238 47.4314C79.6382 47.7166 79.6382 48.5544 80.2272 48.6079C81.7086 48.5366 83.1008 48.5187 84.4215 48.5722ZM90.5434 48.0196C89.8116 47.8414 89.0085 47.6988 88.1518 47.574C88.1161 47.574 88.0447 47.5919 88.009 47.6097C87.7234 47.7879 87.652 48.7148 88.1161 48.8752C88.9728 49 89.7581 49.1426 90.4899 49.3208C94.1844 50.2299 95.8265 51.8519 95.6301 53.9374L95.6658 53.5096L95.7372 52.6006C95.88 50.5329 94.2201 48.9287 90.5434 48.0196ZM84.1538 49.8199C84.1895 49.6417 84.1716 49.1069 83.7611 49.0357C82.8687 49.0178 81.9228 49.0178 80.959 49.0535C80.9054 49.0713 80.8341 49.0713 80.7805 49.1069C80.4235 49.3208 80.37 50.2834 80.959 50.3368C81.9228 50.319 82.833 50.3012 83.7254 50.319C84.0467 50.2834 84.136 49.9625 84.1538 49.8199ZM90.4542 49.8021C89.5618 49.5882 88.5801 49.41 87.5092 49.2852C87.4735 49.2852 87.4022 49.303 87.3665 49.3208C87.063 49.4991 86.9738 50.4438 87.4379 50.5686C88.4909 50.6933 89.4547 50.8538 90.3471 51.0677C94.0773 51.9767 95.6837 53.6344 95.3981 55.7556L95.5587 54.4187C95.7908 52.3332 94.1666 50.7112 90.4542 49.8021ZM90.3114 51.5846L90.0615 51.5311H89.9901C89.7581 51.5668 89.4547 52.6006 89.9187 52.8145L90.1686 52.868C93.8453 53.777 95.4338 55.3991 95.1304 57.5024C95.1304 57.4845 95.1482 57.4489 95.1482 57.4311L95.3267 56.3259V56.2725C95.6301 54.1513 94.0416 52.4936 90.3114 51.5846ZM94.006 56.6111C94.0416 56.5933 94.113 56.5755 94.1844 56.219C94.1844 56.219 94.3272 55.5595 94.2023 55.3456C93.3991 54.5078 92.0427 53.8127 90.0972 53.3492C89.8652 53.2957 89.6153 53.2423 89.3654 53.1888C89.3298 53.1888 89.2762 53.1888 89.2405 53.2066C88.9728 53.367 88.8122 54.2939 89.2048 54.4543C89.4547 54.5078 89.6867 54.5613 89.9187 54.6148C91.8463 55.0782 93.1849 55.7556 93.9703 56.5933C93.9881 56.5933 94.006 56.5933 94.006 56.6111ZM94.7913 56.2012C94.6663 56.2546 94.5057 57.1993 94.5592 57.4489C94.702 57.7519 94.7913 58.0549 94.8091 58.3936V58.4114C94.827 58.4114 94.8448 58.3936 94.9162 58.0549C94.9162 58.0549 95.059 57.4311 95.0411 57.1637C95.0411 56.8429 94.9519 56.522 94.7913 56.2012C94.8091 56.2012 94.7913 56.2012 94.7913 56.2012ZM94.3986 57.8054C94.2737 57.8767 94.0595 58.8036 94.1309 59.0353C94.2737 59.3205 94.3808 59.6235 94.4165 59.9443V59.9622C94.4343 59.9622 94.4522 59.9443 94.5414 59.6057C94.5771 59.4809 94.702 58.9462 94.702 58.7323C94.6582 58.4074 94.5554 58.0933 94.3986 57.8054C94.3986 57.8054 94.3986 57.8232 94.3986 57.8054ZM93.649 57.7519C93.649 57.7519 93.8275 57.0924 93.6847 56.8785C92.8815 56.1477 91.6143 55.5417 89.8652 55.1139C89.7938 55.096 89.7046 55.0782 89.6153 55.0604H89.5618C89.3298 55.096 88.9728 56.112 89.4011 56.3259C89.4904 56.3438 89.5618 56.3616 89.6332 56.3794C91.3644 56.8072 92.6138 57.3954 93.3991 58.1262C93.5062 58.1619 93.5955 57.9123 93.649 57.7519ZM93.0779 58.3936C92.3282 57.7876 91.2216 57.2706 89.7581 56.8963H89.7046C89.4904 56.932 89.0977 57.9302 89.5082 58.1441C90.9539 58.5184 92.0427 59.0175 92.7744 59.6235C92.8815 59.6592 92.9886 59.4096 93.0422 59.2492C93.0243 59.2492 93.2206 58.6075 93.0779 58.3936ZM89.7938 58.7679H89.7403C89.5261 58.8036 89.1156 59.8017 89.4904 60.0156C90.829 60.4078 91.8285 60.9069 92.471 61.5129C92.5781 61.5486 92.6852 61.2634 92.7387 61.1386C92.7387 61.1386 92.9529 60.4969 92.828 60.3008C92.1676 59.677 91.1681 59.1601 89.7938 58.7679ZM88.9549 60.3543H88.9014C88.6872 60.39 88.241 61.3881 88.6158 61.5842C91.0967 62.2259 92.4532 63.2419 92.8101 64.5431H92.8458C92.8637 64.5075 92.9172 64.454 93.0243 64.2044C93.0779 64.0797 93.2563 63.5628 93.2385 63.3667C92.8637 62.0477 91.4715 61.0138 88.9549 60.3543ZM89.6153 62.422H89.5618C89.3654 62.4576 88.9014 63.4202 89.2048 63.6341C91.0253 64.2936 92.007 65.2383 92.2211 66.3791H92.2568C92.2747 66.3612 92.3282 66.2899 92.4353 66.0404C92.4353 66.0404 92.6852 65.4343 92.6852 65.2026C92.471 64.044 91.4715 63.0815 89.6153 62.422ZM88.7051 63.9549H88.6515C88.4552 63.9905 87.9376 64.9531 88.2589 65.167C90.1329 65.773 91.186 66.6642 91.4894 67.7694C91.5072 67.7694 91.5608 67.7337 91.7214 67.4307C91.7749 67.3059 92.007 66.8068 91.9891 66.6108C91.6857 65.4878 90.6148 64.5788 88.7051 63.9549ZM90.7933 69.534C90.8111 69.534 90.8647 69.4984 91.0253 69.1953C91.0967 69.0527 91.3287 68.5893 91.3287 68.3932C91.0967 67.1455 89.9366 66.1652 87.7234 65.5235H87.6699C87.4735 65.5591 86.9203 66.5038 87.2594 66.6999C89.419 67.3238 90.5613 68.3041 90.7933 69.534ZM86.6525 67.0386C86.4384 67.0742 85.8851 68.0189 86.2063 68.215C88.4016 68.7854 89.6153 69.6944 89.9366 70.853C89.9544 70.853 90.0258 70.8174 90.1865 70.5144C90.2757 70.3718 90.5077 69.9083 90.5077 69.7301C90.1865 68.5537 88.9371 67.6268 86.6882 67.0386H86.6525ZM89.4725 70.7283C88.9906 69.9083 87.9733 69.2488 86.367 68.7854H86.3134C86.1171 68.821 85.546 69.7479 85.8315 69.9262C87.4022 70.3718 88.3838 71.0313 88.8478 71.8334C88.8478 71.8334 88.8657 71.8334 88.8657 71.8512C88.9014 71.8334 88.9728 71.8156 89.1513 71.5126C89.1691 71.4947 89.5082 70.9065 89.4725 70.7283ZM88.3481 73.1524C88.3481 73.1524 88.7229 72.582 88.6872 72.4038C88.3124 71.5838 87.4022 70.9243 85.9386 70.4431H85.8851C85.7066 70.4787 85.0997 71.3878 85.3496 71.566C86.7775 72.0295 87.652 72.6712 88.0268 73.4733C88.0268 73.4733 88.0447 73.4733 88.0447 73.4911C88.0804 73.4733 88.1518 73.4376 88.3481 73.1524ZM84.8142 71.9225H84.7606C84.5822 71.9582 83.9396 72.8672 84.1895 73.0276C85.421 73.3841 86.2777 73.8832 86.7596 74.4714C86.8489 74.5071 87.0273 74.2575 87.1166 74.1506C87.2058 74.0258 87.4914 73.5624 87.4557 73.4198C86.9738 72.7959 86.0814 72.2968 84.8142 71.9225ZM84.2252 73.5267C84.0467 73.5624 83.3863 74.4358 83.6184 74.614C84.5465 74.9171 85.2425 75.3092 85.6709 75.7726C85.7601 75.8083 85.9565 75.5588 86.0457 75.4518C86.0457 75.4518 86.4562 74.8992 86.4027 74.7388C85.9565 74.2576 85.2425 73.8654 84.2787 73.5446C84.243 73.5267 84.2252 73.5267 84.2252 73.5267ZM83.6184 75.131H83.5827C83.422 75.1666 82.726 76.0222 82.9223 76.2004C83.7611 76.5035 84.368 76.8956 84.7428 77.3412C84.832 77.359 85.0284 77.1273 85.1176 77.0204C85.2247 76.8778 85.546 76.4678 85.5103 76.3252C85.0997 75.8439 84.4929 75.4518 83.6184 75.131ZM82.8509 76.6817C82.6903 76.7174 81.9763 77.5373 82.137 77.7155C82.5832 77.8938 82.958 78.1077 83.2435 78.3394C83.3506 78.3572 83.5648 78.1077 83.6541 78.0186C83.779 77.876 84.0824 77.466 84.0289 77.3412C83.6779 77.0638 83.2867 76.8415 82.8687 76.6817H82.8509ZM81.5301 78.6602C81.4944 78.7137 81.1732 79.1059 81.2624 79.2128C81.5301 79.3376 81.7622 79.4623 81.9585 79.6049C82.0656 79.6228 82.3154 79.3554 82.3868 79.2841C82.5118 79.1593 82.833 78.7494 82.7795 78.6246C82.5653 78.482 82.3333 78.3394 82.0477 78.2146C81.9585 78.179 81.7265 78.4107 81.5301 78.6602ZM52.0272 97.9822L52.4734 97.9287C52.6519 97.9109 52.8304 97.8931 53.0089 97.8574H53.0446L51.8844 98C51.9201 98 51.9737 97.9822 52.0272 97.9822ZM53.0267 97.8574C53.0446 97.8574 53.0446 97.8574 53.0267 97.8574C53.0446 97.8574 53.0446 97.8574 53.0267 97.8574ZM55.2399 97.4296C55.2042 97.4296 55.1328 97.4474 54.8651 97.5187C54.6152 97.59 54.5973 97.59 54.5973 97.59H54.633C54.7937 97.5722 54.9365 97.5366 55.0971 97.5187C55.2577 97.4831 55.6147 97.4118 55.6861 97.3583H55.6504C55.5254 97.3761 55.3827 97.394 55.2399 97.4296ZM56.2572 97.1088C56.2215 97.1088 56.1501 97.1266 55.9181 97.2157C55.6861 97.3048 55.6682 97.3048 55.6504 97.3227H55.6682C55.936 97.287 56.2037 97.2335 56.4714 97.1801C56.632 97.1444 56.9176 97.0375 56.9711 96.984H56.9533C56.7213 97.0375 56.4892 97.0731 56.2572 97.1088ZM258.619 60.0691L258.637 66.2543H254.835V60.6752C254.835 59.1244 254.157 58.4649 253.05 58.4649C251.837 58.4649 250.891 59.2314 250.891 61.0317V66.2721H247.089L247.071 55.4525H250.694V56.629C251.551 55.7199 252.765 55.2743 254.139 55.2743C256.674 55.2565 258.619 56.7181 258.619 60.0691ZM272.184 61.7803L264.313 61.7981C264.634 62.9032 265.58 63.5271 266.972 63.5271C268.025 63.5271 268.739 63.2241 269.471 62.5824L271.47 64.6501C270.434 65.8087 268.917 66.4147 266.847 66.4147C262.992 66.4147 260.475 64.044 260.475 60.8178C260.475 57.5558 263.01 55.2386 266.436 55.2386C269.631 55.2386 272.237 57.2706 272.237 60.8356C272.237 61.1208 272.201 61.4773 272.184 61.7803ZM264.241 59.8017H268.685C268.489 58.661 267.65 57.948 266.472 57.948C265.276 57.948 264.455 58.661 264.241 59.8017ZM281.482 65.7908C280.822 66.2186 279.84 66.4147 278.841 66.4147C276.057 66.4147 274.432 65.06 274.432 62.2794V58.6431H272.862V55.809H274.432V52.9927H278.234V55.809H280.715V58.6431H278.234V62.2437C278.234 63.0458 278.698 63.4736 279.376 63.4736C279.805 63.4736 280.215 63.3489 280.536 63.135L281.482 65.7908Z" fill="#3375BA"/>
<path fill-rule="evenodd" clip-rule="evenodd" d="M223.922 49.8734H242.145V66.2899H223.922V49.8734ZM164.845 35.5424H183.068V52.2797H164.845V35.5424Z" fill="#3375BA"/>
</svg>
